<svg width="320" height="240" viewBox="0 0 320 240" fill="none" xmlns="http://www.w3.org/2000/svg">
<g clip-path="url(#clip0_1_88)">
<rect width="320" height="240" fill="#090238"/>
<g opacity="0.5" filter="url(#filter0_f_1_88)">
<ellipse rx="80.5009" ry="54.4544" transform="matrix(0.801789 0.597607 -0.599606 0.800295 270.421 28.3125)" fill="#610732"/>
</g>
<g opacity="0.5" filter="url(#filter1_f_1_88)">
<ellipse rx="80.5009" ry="54.4544" transform="matrix(0.801789 0.597607 -0.599606 0.800295 6.8722 198.496)" fill="#390761"/>
</g>
<g opacity="0.5" filter="url(#filter2_f_1_88)">
<ellipse rx="234.879" ry="173.669" transform="matrix(0.801789 0.597607 -0.599606 0.800295 186.635 116.03)" fill="#390761" fill-opacity="0.3"/>
</g>
<rect x="10.8088" y="29.9828" width="87" height="2.45724" rx="1.22862" fill="white" fill-opacity="0.1"/>
<g filter="url(#filter3_d_1_88)">
<rect x="10.8088" y="29.7173" width="87" height="2.55323" rx="1.27661" fill="#71071A"/>
</g>
<g style="mix-blend-mode:hard-light" filter="url(#filter4_f_1_88)">
<ellipse cx="52.3166" cy="31.0807" rx="45.4919" ry="1.44861" fill="url(#paint0_linear_1_88)"/>
</g>
<g opacity="0.39">
<g style="mix-blend-mode:hard-light" filter="url(#filter5_f_1_88)">
<ellipse cx="57.2878" cy="30.8912" rx="11.0786" ry="8.3125" fill="url(#paint1_radial_1_88)"/>
</g>
<g style="mix-blend-mode:hard-light" filter="url(#filter6_f_1_88)">
<ellipse cx="57.2878" cy="30.8912" rx="5.53931" ry="4.15625" fill="#4A071C"/>
</g>
</g>
<g style="mix-blend-mode:hard-light" filter="url(#filter7_f_1_88)">
<ellipse cx="54.3088" cy="30.9939" rx="18.2432" ry="6.22377" fill="url(#paint2_linear_1_88)"/>
</g>
<rect x="11.2559" y="42.3919" width="297.488" height="185.786" rx="3.63576" fill="url(#paint3_linear_1_88)" fill-opacity="0.51"/>
<g filter="url(#filter8_d_1_88)">
<path d="M109.523 -0.991211H320V19.092C320 23.5103 316.418 27.092 312 27.092H117.523C113.105 27.092 109.523 23.5103 109.523 19.092V-0.991211Z" fill="url(#paint4_linear_1_88)"/>
</g>
<line x1="228.637" y1="7.29749" x2="228.637" y2="23.4045" stroke="#D2AEAE" stroke-opacity="0.2"/>
<path d="M238.668 9.12222V8.9548C238.668 8.83183 238.694 8.71867 238.746 8.61533C238.798 8.51198 238.875 8.42879 238.975 8.36575C239.075 8.30272 239.197 8.2712 239.339 8.2712C239.486 8.2712 239.609 8.30272 239.708 8.36575C239.808 8.42776 239.883 8.51043 239.933 8.61377C239.985 8.71712 240.011 8.83079 240.011 8.9548V9.12222C240.011 9.24519 239.985 9.35835 239.933 9.4617C239.881 9.56504 239.806 9.64823 239.705 9.71127C239.606 9.77431 239.484 9.80583 239.339 9.80583C239.195 9.80583 239.072 9.77431 238.972 9.71127C238.872 9.64823 238.796 9.56504 238.744 9.4617C238.694 9.35835 238.668 9.24519 238.668 9.12222ZM239.073 8.9548V9.12222C239.073 9.20386 239.092 9.27878 239.132 9.34699C239.171 9.41519 239.24 9.4493 239.339 9.4493C239.44 9.4493 239.508 9.41571 239.546 9.34854C239.584 9.28033 239.603 9.20489 239.603 9.12222V8.9548C239.603 8.87213 239.585 8.79669 239.549 8.72848C239.513 8.65925 239.443 8.62463 239.339 8.62463C239.242 8.62463 239.174 8.65925 239.133 8.72848C239.093 8.79669 239.073 8.87213 239.073 8.9548ZM237.055 7.30546V7.13805C237.055 7.01404 237.081 6.90036 237.134 6.79702C237.186 6.69368 237.263 6.61101 237.363 6.549C237.463 6.48596 237.585 6.45444 237.727 6.45444C237.873 6.45444 237.995 6.48596 238.095 6.549C238.195 6.61101 238.27 6.69368 238.321 6.79702C238.372 6.90036 238.397 7.01404 238.397 7.13805V7.30546C238.397 7.42947 238.371 7.54315 238.319 7.64649C238.269 7.7488 238.193 7.83096 238.093 7.89296C237.993 7.95497 237.871 7.98597 237.727 7.98597C237.582 7.98597 237.459 7.95497 237.358 7.89296C237.259 7.83096 237.184 7.74829 237.132 7.64494C237.08 7.5416 237.055 7.42844 237.055 7.30546ZM237.462 7.13805V7.30546C237.462 7.38814 237.481 7.46358 237.52 7.53178C237.559 7.59896 237.628 7.63254 237.727 7.63254C237.827 7.63254 237.895 7.59896 237.932 7.53178C237.97 7.46358 237.989 7.38814 237.989 7.30546V7.13805C237.989 7.05538 237.971 6.97994 237.935 6.91173C237.899 6.84249 237.83 6.80787 237.727 6.80787C237.629 6.80787 237.56 6.84249 237.521 6.91173C237.482 6.98097 237.462 7.05641 237.462 7.13805ZM237.231 9.71747L239.414 6.5428H239.801L237.619 9.71747H237.231ZM242.192 6.5428L243.019 9.04161H243.051L243.876 6.5428H244.508L243.389 9.71747H242.679L241.562 6.5428H242.192ZM245.34 9.76552C245.189 9.76552 245.053 9.73865 244.932 9.68492C244.812 9.63014 244.717 9.54954 244.647 9.4431C244.577 9.33665 244.543 9.20541 244.543 9.04936C244.543 8.91502 244.568 8.80392 244.617 8.71608C244.667 8.62824 244.735 8.55797 244.82 8.50527C244.906 8.45256 245.003 8.41277 245.11 8.38591C245.219 8.358 245.331 8.33785 245.447 8.32545C245.586 8.31098 245.699 8.29806 245.786 8.2867C245.873 8.2743 245.936 8.25569 245.975 8.23089C246.015 8.20506 246.036 8.16527 246.036 8.11153V8.10223C246.036 7.98546 246.001 7.89503 245.932 7.83096C245.863 7.76689 245.763 7.73485 245.633 7.73485C245.495 7.73485 245.386 7.76482 245.306 7.82476C245.226 7.8847 245.172 7.95549 245.144 8.03713L244.62 7.96272C244.662 7.81804 244.73 7.69713 244.825 7.59999C244.92 7.50181 245.036 7.42844 245.174 7.37987C245.311 7.33027 245.463 7.30546 245.629 7.30546C245.744 7.30546 245.858 7.3189 245.972 7.34577C246.086 7.37264 246.19 7.41707 246.284 7.47908C246.378 7.54005 246.453 7.62324 246.51 7.72865C246.568 7.83406 246.597 7.96582 246.597 8.12393V9.71747H246.057V9.39039H246.039C246.005 9.45653 245.957 9.51853 245.895 9.57641C245.834 9.63324 245.757 9.67923 245.664 9.71437C245.572 9.74847 245.464 9.76552 245.34 9.76552ZM245.485 9.35319C245.598 9.35319 245.696 9.33097 245.778 9.28653C245.861 9.24106 245.925 9.18112 245.969 9.10672C246.014 9.03231 246.037 8.95119 246.037 8.86335V8.58277C246.02 8.59724 245.99 8.61067 245.947 8.62308C245.906 8.63548 245.859 8.64633 245.808 8.65563C245.756 8.66493 245.705 8.6732 245.654 8.68043C245.604 8.68766 245.56 8.69387 245.523 8.69903C245.439 8.7104 245.364 8.729 245.298 8.75484C245.232 8.78067 245.179 8.81684 245.141 8.86335C245.103 8.90882 245.084 8.96772 245.084 9.04006C245.084 9.1434 245.122 9.22143 245.197 9.27413C245.272 9.32684 245.369 9.35319 245.485 9.35319ZM247.161 9.71747V7.33647H247.705V7.7333H247.73C247.773 7.59586 247.848 7.48993 247.953 7.41552C248.06 7.34008 248.181 7.30236 248.317 7.30236C248.348 7.30236 248.383 7.30391 248.421 7.30701C248.461 7.30908 248.493 7.3127 248.519 7.31787V7.83406C248.495 7.82579 248.457 7.81856 248.406 7.81236C248.355 7.80512 248.306 7.80151 248.259 7.80151C248.156 7.80151 248.064 7.82372 247.983 7.86816C247.902 7.91157 247.838 7.97202 247.792 8.04953C247.745 8.12703 247.722 8.21642 247.722 8.3177V9.71747H247.161ZM249.999 6.5428H250.703L251.646 8.84319H251.683L252.625 6.5428H253.329V9.71747H252.777V7.53643H252.748L251.87 9.70817H251.458L250.581 7.53178H250.551V9.71747H249.999V6.5428ZM254.969 9.76397C254.737 9.76397 254.535 9.71282 254.364 9.61051C254.194 9.5082 254.062 9.36507 253.968 9.18112C253.875 8.99717 253.828 8.78222 253.828 8.53627C253.828 8.29031 253.875 8.07485 253.968 7.88986C254.062 7.70488 254.194 7.56124 254.364 7.45893C254.535 7.35662 254.737 7.30546 254.969 7.30546C255.202 7.30546 255.403 7.35662 255.574 7.45893C255.744 7.56124 255.876 7.70488 255.969 7.88986C256.063 8.07485 256.11 8.29031 256.11 8.53627C256.11 8.78222 256.063 8.99717 255.969 9.18112C255.876 9.36507 255.744 9.5082 255.574 9.61051C255.403 9.71282 255.202 9.76397 254.969 9.76397ZM254.972 9.31443C255.098 9.31443 255.204 9.27981 255.288 9.21058C255.373 9.1403 255.436 9.04626 255.477 8.92845C255.52 8.81064 255.541 8.6794 255.541 8.53472C255.541 8.38901 255.52 8.25724 255.477 8.13943C255.436 8.02059 255.373 7.92603 255.288 7.85576C255.204 7.78549 255.098 7.75035 254.972 7.75035C254.843 7.75035 254.735 7.78549 254.65 7.85576C254.565 7.92603 254.501 8.02059 254.459 8.13943C254.418 8.25724 254.397 8.38901 254.397 8.53472C254.397 8.6794 254.418 8.81064 254.459 8.92845C254.501 9.04626 254.565 9.1403 254.65 9.21058C254.735 9.27981 254.843 9.31443 254.972 9.31443ZM256.611 6.5428H257.315L258.257 8.84319H258.294L259.237 6.5428H259.941V9.71747H259.389V7.53643H259.359L258.482 9.70817H258.07L257.192 7.53178H257.163V9.71747H256.611V6.5428Z" fill="white"/>
<path d="M119.178 7.55659C119.153 7.47288 119.117 7.39796 119.071 7.33182C119.027 7.26464 118.973 7.20729 118.91 7.15975C118.848 7.11221 118.777 7.07656 118.696 7.05279C118.616 7.02799 118.528 7.01559 118.433 7.01559C118.262 7.01559 118.11 7.05848 117.977 7.14425C117.844 7.23002 117.739 7.3561 117.662 7.52248C117.587 7.68783 117.549 7.88935 117.549 8.12703C117.549 8.36679 117.587 8.56985 117.662 8.73624C117.738 8.90262 117.843 9.02921 117.977 9.11602C118.111 9.20179 118.267 9.24468 118.445 9.24468C118.606 9.24468 118.746 9.21368 118.864 9.15167C118.983 9.08967 119.074 9.00182 119.138 8.88815C119.202 8.77344 119.234 8.63909 119.234 8.48511L119.364 8.50527H118.503V8.05573H119.791V8.43706C119.791 8.70885 119.733 8.94395 119.617 9.14237C119.501 9.34079 119.342 9.49373 119.14 9.60121C118.937 9.70765 118.705 9.76087 118.442 9.76087C118.15 9.76087 117.893 9.69525 117.672 9.56401C117.452 9.43173 117.28 9.24416 117.156 9.00131C117.033 8.75742 116.971 8.46806 116.971 8.13323C116.971 7.87695 117.007 7.64804 117.08 7.44653C117.153 7.24501 117.255 7.07398 117.386 6.93343C117.518 6.79185 117.672 6.68438 117.848 6.61101C118.025 6.5366 118.217 6.4994 118.425 6.4994C118.601 6.4994 118.765 6.52523 118.916 6.5769C119.068 6.62754 119.203 6.69988 119.321 6.79392C119.44 6.88796 119.538 6.99957 119.614 7.12875C119.69 7.25793 119.741 7.40054 119.764 7.55659H119.178ZM120.322 9.71747V7.33647H120.866V7.7333H120.891C120.934 7.59586 121.009 7.48993 121.114 7.41552C121.221 7.34008 121.342 7.30236 121.478 7.30236C121.509 7.30236 121.544 7.30391 121.582 7.30701C121.622 7.30908 121.654 7.3127 121.68 7.31787V7.83406C121.656 7.82579 121.618 7.81856 121.567 7.81236C121.516 7.80512 121.467 7.80151 121.42 7.80151C121.317 7.80151 121.225 7.82372 121.144 7.86816C121.063 7.91157 120.999 7.97202 120.953 8.04953C120.906 8.12703 120.883 8.21642 120.883 8.3177V9.71747H120.322ZM122.993 9.76397C122.761 9.76397 122.559 9.71282 122.389 9.61051C122.218 9.5082 122.086 9.36507 121.992 9.18112C121.899 8.99717 121.852 8.78222 121.852 8.53627C121.852 8.29031 121.899 8.07485 121.992 7.88986C122.086 7.70488 122.218 7.56124 122.389 7.45893C122.559 7.35662 122.761 7.30546 122.993 7.30546C123.226 7.30546 123.427 7.35662 123.598 7.45893C123.768 7.56124 123.9 7.70488 123.993 7.88986C124.087 8.07485 124.134 8.29031 124.134 8.53627C124.134 8.78222 124.087 8.99717 123.993 9.18112C123.9 9.36507 123.768 9.5082 123.598 9.61051C123.427 9.71282 123.226 9.76397 122.993 9.76397ZM122.996 9.31443C123.122 9.31443 123.228 9.27981 123.313 9.21058C123.397 9.1403 123.46 9.04626 123.502 8.92845C123.544 8.81064 123.565 8.6794 123.565 8.53472C123.565 8.38901 123.544 8.25724 123.502 8.13943C123.46 8.02059 123.397 7.92603 123.313 7.85576C123.228 7.78549 123.122 7.75035 122.996 7.75035C122.867 7.75035 122.76 7.78549 122.674 7.85576C122.589 7.92603 122.526 8.02059 122.483 8.13943C122.442 8.25724 122.421 8.38901 122.421 8.53472C122.421 8.6794 122.442 8.81064 122.483 8.92845C122.526 9.04626 122.589 9.1403 122.674 9.21058C122.76 9.27981 122.867 9.31443 122.996 9.31443ZM126.492 7.96582L125.981 8.02162C125.966 7.96995 125.941 7.92138 125.905 7.87591C125.87 7.83044 125.822 7.79376 125.762 7.76585C125.702 7.73795 125.629 7.724 125.542 7.724C125.425 7.724 125.327 7.74932 125.248 7.79996C125.169 7.85059 125.13 7.91622 125.131 7.99682C125.13 8.06606 125.156 8.12238 125.207 8.16579C125.26 8.20919 125.347 8.24484 125.468 8.27275L125.874 8.35955C126.099 8.40812 126.267 8.48511 126.376 8.59052C126.487 8.69593 126.542 8.83389 126.543 9.00441C126.542 9.15425 126.499 9.28653 126.412 9.40124C126.326 9.51492 126.207 9.60379 126.054 9.66786C125.901 9.73194 125.725 9.76397 125.527 9.76397C125.235 9.76397 125.001 9.703 124.823 9.58106C124.645 9.45808 124.539 9.28705 124.505 9.06796L125.052 9.01526C125.077 9.12273 125.13 9.20386 125.21 9.25863C125.291 9.3134 125.396 9.34079 125.525 9.34079C125.658 9.34079 125.765 9.3134 125.846 9.25863C125.928 9.20386 125.968 9.13617 125.968 9.05556C125.968 8.98736 125.942 8.93104 125.889 8.8866C125.838 8.84216 125.757 8.80806 125.648 8.78429L125.241 8.69903C125.013 8.65149 124.844 8.5714 124.734 8.45876C124.625 8.34509 124.571 8.20144 124.572 8.02783C124.571 7.88108 124.61 7.75397 124.691 7.64649C124.773 7.53798 124.886 7.45428 125.031 7.39537C125.176 7.33543 125.344 7.30546 125.534 7.30546C125.813 7.30546 126.033 7.36489 126.193 7.48373C126.354 7.60257 126.454 7.76327 126.492 7.96582ZM128.888 7.96582L128.377 8.02162C128.362 7.96995 128.337 7.92138 128.301 7.87591C128.265 7.83044 128.218 7.79376 128.158 7.76585C128.098 7.73795 128.025 7.724 127.938 7.724C127.821 7.724 127.723 7.74932 127.643 7.79996C127.565 7.85059 127.526 7.91622 127.527 7.99682C127.526 8.06606 127.551 8.12238 127.603 8.16579C127.656 8.20919 127.743 8.24484 127.863 8.27275L128.27 8.35955C128.495 8.40812 128.662 8.48511 128.772 8.59052C128.882 8.69593 128.938 8.83389 128.939 9.00441C128.938 9.15425 128.894 9.28653 128.807 9.40124C128.722 9.51492 128.602 9.60379 128.449 9.66786C128.296 9.73194 128.121 9.76397 127.922 9.76397C127.631 9.76397 127.396 9.703 127.219 9.58106C127.041 9.45808 126.935 9.28705 126.901 9.06796L127.448 9.01526C127.473 9.12273 127.525 9.20386 127.606 9.25863C127.687 9.3134 127.792 9.34079 127.921 9.34079C128.054 9.34079 128.161 9.3134 128.242 9.25863C128.323 9.20386 128.364 9.13617 128.364 9.05556C128.364 8.98736 128.338 8.93104 128.285 8.8866C128.233 8.84216 128.153 8.80806 128.043 8.78429L127.637 8.69903C127.409 8.65149 127.24 8.5714 127.13 8.45876C127.021 8.34509 126.966 8.20144 126.967 8.02783C126.966 7.88108 127.006 7.75397 127.087 7.64649C127.168 7.53798 127.282 7.45428 127.426 7.39537C127.572 7.33543 127.74 7.30546 127.93 7.30546C128.209 7.30546 128.429 7.36489 128.589 7.48373C128.75 7.60257 128.85 7.76327 128.888 7.96582ZM132.235 7.41552C132.22 7.28015 132.159 7.17474 132.052 7.0993C131.945 7.02386 131.807 6.98614 131.636 6.98614C131.517 6.98614 131.414 7.00422 131.328 7.04039C131.242 7.07656 131.177 7.12565 131.131 7.18765C131.086 7.24966 131.062 7.32045 131.061 7.40002C131.061 7.46616 131.076 7.52352 131.106 7.57209C131.137 7.62066 131.179 7.66199 131.232 7.6961C131.285 7.72917 131.343 7.75707 131.407 7.7798C131.471 7.80254 131.536 7.82166 131.601 7.83716L131.898 7.91157C132.018 7.93947 132.134 7.97719 132.244 8.02473C132.356 8.07226 132.455 8.1322 132.543 8.20454C132.632 8.27688 132.702 8.3642 132.754 8.46651C132.806 8.56882 132.832 8.6887 132.832 8.82614C132.832 9.01216 132.784 9.17596 132.689 9.31753C132.594 9.45808 132.456 9.56814 132.277 9.64771C132.098 9.72625 131.881 9.76552 131.627 9.76552C131.38 9.76552 131.166 9.72729 130.984 9.65081C130.803 9.57434 130.661 9.46273 130.559 9.31598C130.458 9.16924 130.403 8.99046 130.395 8.77964H130.961C130.969 8.89021 131.003 8.98219 131.063 9.05556C131.123 9.12894 131.201 9.18371 131.297 9.21988C131.394 9.25605 131.503 9.27413 131.622 9.27413C131.748 9.27413 131.857 9.25553 131.951 9.21833C132.046 9.18009 132.121 9.12739 132.174 9.06021C132.228 8.99201 132.255 8.91243 132.257 8.82149C132.255 8.73882 132.231 8.67061 132.184 8.61688C132.136 8.5621 132.069 8.51663 131.984 8.48046C131.899 8.44326 131.8 8.41019 131.686 8.38126L131.325 8.28825C131.063 8.22108 130.857 8.11928 130.705 7.98287C130.554 7.84543 130.478 7.66303 130.478 7.43568C130.478 7.24863 130.529 7.08483 130.63 6.94428C130.733 6.80374 130.872 6.69471 131.047 6.61721C131.223 6.53867 131.422 6.4994 131.644 6.4994C131.869 6.4994 132.067 6.53867 132.236 6.61721C132.407 6.69471 132.541 6.80271 132.638 6.94118C132.735 7.07863 132.785 7.23674 132.788 7.41552H132.235ZM134.005 9.76552C133.854 9.76552 133.718 9.73865 133.597 9.68492C133.477 9.63014 133.382 9.54954 133.312 9.4431C133.243 9.33665 133.208 9.20541 133.208 9.04936C133.208 8.91502 133.233 8.80392 133.282 8.71608C133.332 8.62824 133.4 8.55797 133.485 8.50527C133.571 8.45256 133.668 8.41277 133.775 8.38591C133.884 8.358 133.996 8.33785 134.112 8.32545C134.251 8.31098 134.364 8.29806 134.451 8.2867C134.538 8.2743 134.601 8.25569 134.64 8.23089C134.681 8.20506 134.701 8.16527 134.701 8.11153V8.10223C134.701 7.98546 134.666 7.89503 134.597 7.83096C134.528 7.76689 134.428 7.73485 134.298 7.73485C134.16 7.73485 134.051 7.76482 133.971 7.82476C133.891 7.8847 133.837 7.95549 133.809 8.03713L133.285 7.96272C133.327 7.81804 133.395 7.69713 133.49 7.59999C133.585 7.50181 133.701 7.42844 133.839 7.37987C133.976 7.33027 134.128 7.30546 134.295 7.30546C134.409 7.30546 134.523 7.3189 134.637 7.34577C134.751 7.37264 134.855 7.41707 134.949 7.47908C135.043 7.54005 135.118 7.62324 135.175 7.72865C135.233 7.83406 135.262 7.96582 135.262 8.12393V9.71747H134.722V9.39039H134.704C134.67 9.45653 134.622 9.51853 134.56 9.57641C134.499 9.63324 134.422 9.67923 134.329 9.71437C134.237 9.74847 134.129 9.76552 134.005 9.76552ZM134.15 9.35319C134.263 9.35319 134.361 9.33097 134.443 9.28653C134.526 9.24106 134.59 9.18112 134.634 9.10672C134.679 9.03231 134.702 8.95119 134.702 8.86335V8.58277C134.685 8.59724 134.655 8.61067 134.612 8.62308C134.571 8.63548 134.524 8.64633 134.473 8.65563C134.421 8.66493 134.37 8.6732 134.319 8.68043C134.269 8.68766 134.225 8.69387 134.188 8.69903C134.104 8.7104 134.029 8.729 133.963 8.75484C133.897 8.78067 133.844 8.81684 133.806 8.86335C133.768 8.90882 133.749 8.96772 133.749 9.04006C133.749 9.1434 133.787 9.22143 133.862 9.27413C133.937 9.32684 134.034 9.35319 134.15 9.35319ZM136.387 6.5428V9.71747H135.826V6.5428H136.387ZM138.018 9.76397C137.78 9.76397 137.573 9.71437 137.4 9.61516C137.227 9.51492 137.094 9.37334 137.001 9.19042C136.908 9.00647 136.862 8.78997 136.862 8.54092C136.862 8.296 136.908 8.08105 137.001 7.89606C137.095 7.71005 137.227 7.56537 137.395 7.46203C137.564 7.35765 137.762 7.30546 137.989 7.30546C138.136 7.30546 138.274 7.32923 138.404 7.37677C138.536 7.42327 138.651 7.49561 138.752 7.59379C138.853 7.69196 138.932 7.81701 138.99 7.96892C139.048 8.1198 139.077 8.29962 139.077 8.50837V8.68043H137.125V8.3022H138.539C138.538 8.19472 138.515 8.09913 138.469 8.01542C138.424 7.93068 138.36 7.86403 138.279 7.81546C138.198 7.76689 138.104 7.7426 137.997 7.7426C137.882 7.7426 137.781 7.7705 137.694 7.82631C137.608 7.88108 137.54 7.95342 137.491 8.04333C137.444 8.1322 137.419 8.22986 137.418 8.3363V8.66648C137.418 8.80496 137.444 8.9238 137.494 9.02301C137.545 9.12118 137.616 9.19662 137.707 9.24933C137.798 9.301 137.904 9.32684 138.026 9.32684C138.108 9.32684 138.182 9.31547 138.248 9.29273C138.314 9.26896 138.371 9.23434 138.42 9.18887C138.468 9.1434 138.505 9.08708 138.53 9.01991L139.054 9.07881C139.021 9.21729 138.958 9.3382 138.865 9.44154C138.773 9.54385 138.655 9.62343 138.511 9.68027C138.368 9.73607 138.203 9.76397 138.018 9.76397ZM141.434 7.96582L140.922 8.02162C140.908 7.96995 140.882 7.92138 140.846 7.87591C140.811 7.83044 140.763 7.79376 140.704 7.76585C140.644 7.73795 140.57 7.724 140.483 7.724C140.367 7.724 140.268 7.74932 140.189 7.79996C140.11 7.85059 140.072 7.91622 140.073 7.99682C140.072 8.06606 140.097 8.12238 140.149 8.16579C140.201 8.20919 140.288 8.24484 140.409 8.27275L140.815 8.35955C141.04 8.40812 141.208 8.48511 141.317 8.59052C141.428 8.69593 141.484 8.83389 141.485 9.00441C141.484 9.15425 141.44 9.28653 141.353 9.40124C141.267 9.51492 141.148 9.60379 140.995 9.66786C140.842 9.73194 140.666 9.76397 140.468 9.76397C140.177 9.76397 139.942 9.703 139.764 9.58106C139.586 9.45808 139.48 9.28705 139.446 9.06796L139.994 9.01526C140.018 9.12273 140.071 9.20386 140.152 9.25863C140.232 9.3134 140.337 9.34079 140.466 9.34079C140.6 9.34079 140.707 9.3134 140.787 9.25863C140.869 9.20386 140.91 9.13617 140.91 9.05556C140.91 8.98736 140.883 8.93104 140.831 8.8866C140.779 8.84216 140.698 8.80806 140.589 8.78429L140.183 8.69903C139.954 8.65149 139.785 8.5714 139.676 8.45876C139.566 8.34509 139.512 8.20144 139.513 8.02783C139.512 7.88108 139.552 7.75397 139.632 7.64649C139.714 7.53798 139.827 7.45428 139.972 7.39537C140.118 7.33543 140.286 7.30546 140.476 7.30546C140.755 7.30546 140.974 7.36489 141.134 7.48373C141.296 7.60257 141.395 7.76327 141.434 7.96582Z" fill="white"/>
<path d="M282.774 9.48044H299.638V21.2214H282.774V9.48044ZM291.206 12.4157C291.952 12.4157 292.666 12.7249 293.194 13.2754C293.721 13.8259 294.017 14.5725 294.017 15.3509C294.017 16.1294 293.721 16.876 293.194 17.4265C292.666 17.9769 291.952 18.2862 291.206 18.2862C290.461 18.2862 289.746 17.9769 289.219 17.4265C288.691 16.876 288.395 16.1294 288.395 15.3509C288.395 14.5725 288.691 13.8259 289.219 13.2754C289.746 12.7249 290.461 12.4157 291.206 12.4157ZM286.522 11.4373C286.522 11.9563 286.324 12.454 285.973 12.821C285.621 13.1879 285.145 13.3941 284.648 13.3941V17.3078C285.145 17.3078 285.621 17.5139 285.973 17.8809C286.324 18.2479 286.522 18.7456 286.522 19.2646H295.891C295.891 18.7456 296.088 18.2479 296.439 17.8809C296.791 17.5139 297.267 17.3078 297.764 17.3078V13.3941C297.267 13.3941 296.791 13.1879 296.439 12.821C296.088 12.454 295.891 11.9563 295.891 11.4373H286.522Z" fill="#F8F8F8" fill-opacity="0.15"/>
</g>
<defs>
<filter id="filter0_f_1_88" x="161.688" y="-72.9834" width="217.465" height="202.592" filterUnits="userSpaceOnUse" color-interpolation-filters="sRGB">
<feFlood flood-opacity="0" result="BackgroundImageFix"/>
<feBlend mode="normal" in="SourceGraphic" in2="BackgroundImageFix" result="shape"/>
<feGaussianBlur stdDeviation="18.1918" result="effect1_foregroundBlur_1_88"/>
</filter>
<filter id="filter1_f_1_88" x="-101.86" y="97.2003" width="217.465" height="202.592" filterUnits="userSpaceOnUse" color-interpolation-filters="sRGB">
<feFlood flood-opacity="0" result="BackgroundImageFix"/>
<feBlend mode="normal" in="SourceGraphic" in2="BackgroundImageFix" result="shape"/>
<feGaussianBlur stdDeviation="18.1918" result="effect1_foregroundBlur_1_88"/>
</filter>
<filter id="filter2_f_1_88" x="-64.9849" y="-117.888" width="503.239" height="467.836" filterUnits="userSpaceOnUse" color-interpolation-filters="sRGB">
<feFlood flood-opacity="0" result="BackgroundImageFix"/>
<feBlend mode="normal" in="SourceGraphic" in2="BackgroundImageFix" result="shape"/>
<feGaussianBlur stdDeviation="18.1918" result="effect1_foregroundBlur_1_88"/>
</filter>
<filter id="filter3_d_1_88" x="4.80878" y="23.7173" width="99" height="14.5532" filterUnits="userSpaceOnUse" color-interpolation-filters="sRGB">
<feFlood flood-opacity="0" result="BackgroundImageFix"/>
<feColorMatrix in="SourceAlpha" type="matrix" values="0 0 0 0 0 0 0 0 0 0 0 0 0 0 0 0 0 0 127 0" result="hardAlpha"/>
<feMorphology radius="1" operator="dilate" in="SourceAlpha" result="effect1_dropShadow_1_88"/>
<feOffset/>
<feGaussianBlur stdDeviation="2.5"/>
<feComposite in2="hardAlpha" operator="out"/>
<feColorMatrix type="matrix" values="0 0 0 0 0.95 0 0 0 0 0.0514584 0 0 0 0 0.105371 0 0 0 0.74 0"/>
<feBlend mode="normal" in2="BackgroundImageFix" result="effect1_dropShadow_1_88"/>
<feBlend mode="normal" in="SourceGraphic" in2="effect1_dropShadow_1_88" result="shape"/>
</filter>
<filter id="filter4_f_1_88" x="3.70746" y="26.515" width="97.2183" height="9.13159" filterUnits="userSpaceOnUse" color-interpolation-filters="sRGB">
<feFlood flood-opacity="0" result="BackgroundImageFix"/>
<feBlend mode="normal" in="SourceGraphic" in2="BackgroundImageFix" result="shape"/>
<feGaussianBlur stdDeviation="1.55859" result="effect1_foregroundBlur_1_88"/>
</filter>
<filter id="filter5_f_1_88" x="36.8576" y="13.2271" width="40.8603" height="35.3281" filterUnits="userSpaceOnUse" color-interpolation-filters="sRGB">
<feFlood flood-opacity="0" result="BackgroundImageFix"/>
<feBlend mode="normal" in="SourceGraphic" in2="BackgroundImageFix" result="shape"/>
<feGaussianBlur stdDeviation="4.67578" result="effect1_foregroundBlur_1_88"/>
</filter>
<filter id="filter6_f_1_88" x="47.5922" y="22.5787" width="19.3911" height="16.625" filterUnits="userSpaceOnUse" color-interpolation-filters="sRGB">
<feFlood flood-opacity="0" result="BackgroundImageFix"/>
<feBlend mode="normal" in="SourceGraphic" in2="BackgroundImageFix" result="shape"/>
<feGaussianBlur stdDeviation="2.07812" result="effect1_foregroundBlur_1_88"/>
</filter>
<filter id="filter7_f_1_88" x="28.0656" y="16.7701" width="52.4863" height="28.4475" filterUnits="userSpaceOnUse" color-interpolation-filters="sRGB">
<feFlood flood-opacity="0" result="BackgroundImageFix"/>
<feBlend mode="normal" in="SourceGraphic" in2="BackgroundImageFix" result="shape"/>
<feGaussianBlur stdDeviation="4" result="effect1_foregroundBlur_1_88"/>
</filter>
<filter id="filter8_d_1_88" x="69.5298" y="-40.9846" width="297.735" height="115.341" filterUnits="userSpaceOnUse" color-interpolation-filters="sRGB">
<feFlood flood-opacity="0" result="BackgroundImageFix"/>
<feColorMatrix in="SourceAlpha" type="matrix" values="0 0 0 0 0 0 0 0 0 0 0 0 0 0 0 0 0 0 127 0" result="hardAlpha"/>
<feOffset dx="3.63576" dy="3.63576"/>
<feGaussianBlur stdDeviation="21.8146"/>
<feComposite in2="hardAlpha" operator="out"/>
<feColorMatrix type="matrix" values="0 0 0 0 0.0442708 0 0 0 0 0.0753813 0 0 0 0 0.625 0 0 0 0.41 0"/>
<feBlend mode="normal" in2="BackgroundImageFix" result="effect1_dropShadow_1_88"/>
<feBlend mode="normal" in="SourceGraphic" in2="effect1_dropShadow_1_88" result="shape"/>
</filter>
<linearGradient id="paint0_linear_1_88" x1="102.211" y1="29.6321" x2="5.35717" y2="29.6321" gradientUnits="userSpaceOnUse">
<stop stop-color="#8A1030"/>
<stop offset="0.292136" stop-color="#833447"/>
<stop offset="0.489773" stop-color="#C74179"/>
<stop offset="0.630685" stop-color="#7C1B32"/>
<stop offset="0.833333" stop-color="#8E0921" stop-opacity="0.451286"/>
<stop offset="1" stop-color="#329D9C" stop-opacity="0"/>
<stop offset="1" stop-color="#329D9C" stop-opacity="0"/>
<stop offset="1" stop-color="#98ECFF" stop-opacity="0"/>
</linearGradient>
<radialGradient id="paint1_radial_1_88" cx="0" cy="0" r="1" gradientUnits="userSpaceOnUse" gradientTransform="translate(57.2878 22.5787) rotate(180) scale(9.9547 987.802)">
<stop stop-color="#7B0606"/>
<stop offset="0.515625" stop-color="#AA1240" stop-opacity="0.886562"/>
</radialGradient>
<linearGradient id="paint2_linear_1_88" x1="78.8974" y1="24.7701" x2="37.9164" y2="24.7701" gradientUnits="userSpaceOnUse">
<stop stop-color="#812C50" stop-opacity="0.504734"/>
<stop offset="0.526516" stop-color="#9D3259"/>
<stop offset="0.817708" stop-color="#8E044F" stop-opacity="0.600251"/>
<stop offset="1" stop-color="#7D051A" stop-opacity="0.35"/>
</linearGradient>
<linearGradient id="paint3_linear_1_88" x1="15.5796" y1="135.286" x2="324.002" y2="135.612" gradientUnits="userSpaceOnUse">
<stop stop-color="#0D0322"/>
<stop offset="1" stop-color="#0A0223"/>
</linearGradient>
<linearGradient id="paint4_linear_1_88" x1="112.582" y1="13.0505" x2="330.79" y2="14.1306" gradientUnits="userSpaceOnUse">
<stop stop-color="#641026"/>
<stop offset="1" stop-color="#4A071C"/>
</linearGradient>
<clipPath id="clip0_1_88">
<rect width="320" height="240" fill="white"/>
</clipPath>
</defs>
</svg>
