<svg width="320" height="241" viewBox="0 0 320 241" fill="none" xmlns="http://www.w3.org/2000/svg">
<g clip-path="url(#clip0_2_632)">
<rect width="320" height="240" transform="translate(0 0.711365)" fill="#FAFAFA"/>
<path d="M282.774 10.1918H299.638V21.9328H282.774V10.1918ZM291.206 13.1271C291.952 13.1271 292.666 13.4363 293.194 13.9868C293.721 14.5372 294.017 15.2838 294.017 16.0623C294.017 16.8408 293.721 17.5874 293.194 18.1378C292.666 18.6883 291.952 18.9975 291.206 18.9975C290.461 18.9975 289.746 18.6883 289.219 18.1378C288.691 17.5874 288.395 16.8408 288.395 16.0623C288.395 15.2838 288.691 14.5372 289.219 13.9868C289.746 13.4363 290.461 13.1271 291.206 13.1271M286.522 12.1486C286.522 12.6676 286.324 13.1653 285.973 13.5323C285.621 13.8993 285.145 14.1055 284.648 14.1055V18.0191C285.145 18.0191 285.621 18.2253 285.973 18.5923C286.324 18.9593 286.522 19.457 286.522 19.976H295.891C295.891 19.457 296.088 18.9593 296.439 18.5923C296.791 18.2253 297.267 18.0191 297.764 18.0191V14.1055C297.267 14.1055 296.791 13.8993 296.439 13.5323C296.088 13.1653 295.891 12.6676 295.891 12.1486H286.522Z" fill="#F8F8F8" fill-opacity="0.15"/>
<rect x="10.8088" y="30.6942" width="87" height="2.45724" rx="1.22862" fill="white" fill-opacity="0.1"/>
<rect x="10.8088" y="30.4286" width="87" height="2.55323" rx="1.27661" fill="#71071A"/>
<g filter="url(#filter0_d_2_632)">
<rect x="11.2559" y="43.3919" width="297.488" height="185.786" rx="3.63576" fill="white"/>
</g>
<path d="M109.523 0.711365H320V20.092C320 24.5103 316.418 28.092 312 28.092H117.523C113.105 28.092 109.523 24.5103 109.523 20.092V0.711365Z" fill="url(#paint0_linear_2_632)"/>
<path d="M289.068 10.4804H305.933V22.2214H289.068V10.4804ZM297.501 13.4157C298.246 13.4157 298.961 13.7249 299.488 14.2754C300.015 14.8259 300.311 15.5725 300.311 16.3509C300.311 17.1294 300.015 17.876 299.488 18.4265C298.961 18.9769 298.246 19.2862 297.501 19.2862C296.755 19.2862 296.04 18.9769 295.513 18.4265C294.986 17.876 294.69 17.1294 294.69 16.3509C294.69 15.5725 294.986 14.8259 295.513 14.2754C296.04 13.7249 296.755 13.4157 297.501 13.4157M292.816 12.4373C292.816 12.9563 292.619 13.454 292.267 13.821C291.916 14.1879 291.439 14.3941 290.942 14.3941V18.3078C291.439 18.3078 291.916 18.5139 292.267 18.8809C292.619 19.2479 292.816 19.7456 292.816 20.2646H302.185C302.185 19.7456 302.382 19.2479 302.734 18.8809C303.085 18.5139 303.562 18.3078 304.059 18.3078V14.3941C303.562 14.3941 303.085 14.1879 302.734 13.821C302.382 13.454 302.185 12.9563 302.185 12.4373H292.816Z" fill="#F8F8F8" fill-opacity="0.15"/>
<line x1="228.637" y1="8.00885" x2="228.637" y2="24.1158" stroke="#D2AEAE" stroke-opacity="0.2"/>
<path d="M238.668 9.83358V9.66617C238.668 9.54319 238.694 9.43003 238.746 9.32669C238.798 9.22335 238.875 9.14016 238.975 9.07712C239.075 9.01408 239.197 8.98256 239.339 8.98256C239.486 8.98256 239.609 9.01408 239.708 9.07712C239.808 9.13912 239.883 9.2218 239.933 9.32514C239.985 9.42848 240.011 9.54216 240.011 9.66617V9.83358C240.011 9.95656 239.985 10.0697 239.933 10.1731C239.881 10.2764 239.806 10.3596 239.705 10.4226C239.606 10.4857 239.484 10.5172 239.339 10.5172C239.195 10.5172 239.072 10.4857 238.972 10.4226C238.872 10.3596 238.796 10.2764 238.744 10.1731C238.694 10.0697 238.668 9.95656 238.668 9.83358ZM239.073 9.66617V9.83358C239.073 9.91522 239.092 9.99015 239.132 10.0584C239.171 10.1266 239.24 10.1607 239.339 10.1607C239.44 10.1607 239.508 10.1271 239.546 10.0599C239.584 9.9917 239.603 9.91626 239.603 9.83358V9.66617C239.603 9.58349 239.585 9.50806 239.549 9.43985C239.513 9.37061 239.443 9.33599 239.339 9.33599C239.242 9.33599 239.174 9.37061 239.133 9.43985C239.093 9.50806 239.073 9.58349 239.073 9.66617ZM237.055 8.01683V7.84941C237.055 7.7254 237.081 7.61173 237.134 7.50839C237.186 7.40504 237.263 7.32237 237.363 7.26036C237.463 7.19733 237.585 7.16581 237.727 7.16581C237.873 7.16581 237.995 7.19733 238.095 7.26036C238.195 7.32237 238.27 7.40504 238.321 7.50839C238.372 7.61173 238.397 7.7254 238.397 7.84941V8.01683C238.397 8.14084 238.371 8.25452 238.319 8.35786C238.269 8.46017 238.193 8.54232 238.093 8.60433C237.993 8.66633 237.871 8.69734 237.727 8.69734C237.582 8.69734 237.459 8.66633 237.358 8.60433C237.259 8.54232 237.184 8.45965 237.132 8.35631C237.08 8.25297 237.055 8.13981 237.055 8.01683ZM237.462 7.84941V8.01683C237.462 8.0995 237.481 8.17494 237.52 8.24315C237.559 8.31032 237.628 8.34391 237.727 8.34391C237.827 8.34391 237.895 8.31032 237.932 8.24315C237.97 8.17494 237.989 8.0995 237.989 8.01683V7.84941C237.989 7.76674 237.971 7.6913 237.935 7.6231C237.899 7.55386 237.83 7.51924 237.727 7.51924C237.629 7.51924 237.56 7.55386 237.521 7.6231C237.482 7.69233 237.462 7.76777 237.462 7.84941ZM237.231 10.4288L239.414 7.25416H239.801L237.619 10.4288H237.231ZM242.192 7.25416L243.019 9.75298H243.051L243.876 7.25416H244.508L243.389 10.4288H242.679L241.562 7.25416H242.192ZM245.34 10.4769C245.189 10.4769 245.053 10.45 244.932 10.3963C244.812 10.3415 244.717 10.2609 244.647 10.1545C244.577 10.048 244.543 9.91677 244.543 9.76073C244.543 9.62638 244.568 9.51529 244.617 9.42745C244.667 9.33961 244.735 9.26933 244.82 9.21663C244.906 9.16393 245.003 9.12414 245.11 9.09727C245.219 9.06937 245.331 9.04922 245.447 9.03682C245.586 9.02235 245.699 9.00943 245.786 8.99806C245.873 8.98566 245.936 8.96706 245.975 8.94226C246.015 8.91642 246.036 8.87664 246.036 8.8229V8.8136C246.036 8.69682 246.001 8.6064 245.932 8.54232C245.863 8.47825 245.763 8.44622 245.633 8.44622C245.495 8.44622 245.386 8.47618 245.306 8.53612C245.226 8.59606 245.172 8.66685 245.144 8.74849L244.62 8.67408C244.662 8.52941 244.73 8.4085 244.825 8.31135C244.92 8.21318 245.036 8.13981 245.174 8.09124C245.311 8.04163 245.463 8.01683 245.629 8.01683C245.744 8.01683 245.858 8.03026 245.972 8.05713C246.086 8.084 246.19 8.12844 246.284 8.19044C246.378 8.25142 246.453 8.33461 246.51 8.44001C246.568 8.54542 246.597 8.67718 246.597 8.8353V10.4288H246.057V10.1018H246.039C246.005 10.1679 245.957 10.2299 245.895 10.2878C245.834 10.3446 245.757 10.3906 245.664 10.4257C245.572 10.4598 245.464 10.4769 245.34 10.4769ZM245.485 10.0646C245.598 10.0646 245.696 10.0423 245.778 9.9979C245.861 9.95243 245.925 9.89249 245.969 9.81808C246.014 9.74368 246.037 9.66255 246.037 9.57471V9.29414C246.02 9.3086 245.99 9.32204 245.947 9.33444C245.906 9.34684 245.859 9.35769 245.808 9.36699C245.756 9.37629 245.705 9.38456 245.654 9.3918C245.604 9.39903 245.56 9.40523 245.523 9.4104C245.439 9.42176 245.364 9.44037 245.298 9.4662C245.232 9.49204 245.179 9.52821 245.141 9.57471C245.103 9.62018 245.084 9.67909 245.084 9.75143C245.084 9.85477 245.122 9.93279 245.197 9.9855C245.272 10.0382 245.369 10.0646 245.485 10.0646ZM247.161 10.4288V8.04783H247.705V8.44467H247.73C247.773 8.30722 247.848 8.20129 247.953 8.12689C248.06 8.05145 248.181 8.01373 248.317 8.01373C248.348 8.01373 248.383 8.01528 248.421 8.01838C248.461 8.02045 248.493 8.02406 248.519 8.02923V8.54542C248.495 8.53716 248.457 8.52992 248.406 8.52372C248.355 8.51649 248.306 8.51287 248.259 8.51287C248.156 8.51287 248.064 8.53509 247.983 8.57953C247.902 8.62293 247.838 8.68339 247.792 8.76089C247.745 8.8384 247.722 8.92779 247.722 9.02906V10.4288H247.161ZM249.999 7.25416H250.703L251.646 9.55456H251.683L252.625 7.25416H253.329V10.4288H252.777V8.2478H252.748L251.87 10.4195H251.458L250.581 8.24315H250.551V10.4288H249.999V7.25416ZM254.969 10.4753C254.737 10.4753 254.535 10.4242 254.364 10.3219C254.194 10.2196 254.062 10.0764 253.968 9.89249C253.875 9.70854 253.828 9.49359 253.828 9.24763C253.828 9.00168 253.875 8.78621 253.968 8.60123C254.062 8.41625 254.194 8.2726 254.364 8.17029C254.535 8.06798 254.737 8.01683 254.969 8.01683C255.202 8.01683 255.403 8.06798 255.574 8.17029C255.744 8.2726 255.876 8.41625 255.969 8.60123C256.063 8.78621 256.11 9.00168 256.11 9.24763C256.11 9.49359 256.063 9.70854 255.969 9.89249C255.876 10.0764 255.744 10.2196 255.574 10.3219C255.403 10.4242 255.202 10.4753 254.969 10.4753ZM254.972 10.0258C255.098 10.0258 255.204 9.99118 255.288 9.92194C255.373 9.85167 255.436 9.75763 255.477 9.63982C255.52 9.52201 255.541 9.39076 255.541 9.24608C255.541 9.10037 255.52 8.96861 255.477 8.8508C255.436 8.73196 255.373 8.6374 255.288 8.56713C255.204 8.49685 255.098 8.46172 254.972 8.46172C254.843 8.46172 254.735 8.49685 254.65 8.56713C254.565 8.6374 254.501 8.73196 254.459 8.8508C254.418 8.96861 254.397 9.10037 254.397 9.24608C254.397 9.39076 254.418 9.52201 254.459 9.63982C254.501 9.75763 254.565 9.85167 254.65 9.92194C254.735 9.99118 254.843 10.0258 254.972 10.0258ZM256.611 7.25416H257.315L258.257 9.55456H258.294L259.237 7.25416H259.941V10.4288H259.389V8.2478H259.359L258.482 10.4195H258.07L257.192 8.24315H257.163V10.4288H256.611V7.25416Z" fill="white"/>
<path d="M119.178 8.26795C119.153 8.18424 119.117 8.10932 119.071 8.04318C119.027 7.97601 118.973 7.91865 118.91 7.87112C118.848 7.82358 118.777 7.78793 118.696 7.76416C118.616 7.73936 118.528 7.72695 118.433 7.72695C118.262 7.72695 118.11 7.76984 117.977 7.85562C117.844 7.94139 117.739 8.06747 117.662 8.23385C117.587 8.39919 117.549 8.60071 117.549 8.8384C117.549 9.07815 117.587 9.28122 117.662 9.4476C117.738 9.61398 117.843 9.74057 117.977 9.82738C118.111 9.91316 118.267 9.95604 118.445 9.95604C118.606 9.95604 118.746 9.92504 118.864 9.86304C118.983 9.80103 119.074 9.71319 119.138 9.59951C119.202 9.4848 119.234 9.35046 119.234 9.19648L119.364 9.21663H118.503V8.76709H119.791V9.14842C119.791 9.42021 119.733 9.65532 119.617 9.85373C119.501 10.0522 119.342 10.2051 119.14 10.3126C118.937 10.419 118.705 10.4722 118.442 10.4722C118.15 10.4722 117.893 10.4066 117.672 10.2754C117.452 10.1431 117.28 9.95553 117.156 9.71267C117.033 9.46879 116.971 9.17943 116.971 8.8446C116.971 8.58831 117.007 8.35941 117.08 8.15789C117.153 7.95637 117.255 7.78534 117.386 7.6448C117.518 7.50322 117.672 7.39574 117.848 7.32237C118.025 7.24796 118.217 7.21076 118.425 7.21076C118.601 7.21076 118.765 7.2366 118.916 7.28827C119.068 7.3389 119.203 7.41124 119.321 7.50529C119.44 7.59933 119.538 7.71094 119.614 7.84011C119.69 7.96929 119.741 8.1119 119.764 8.26795H119.178ZM120.322 10.4288V8.04783H120.866V8.44467H120.891C120.934 8.30722 121.009 8.20129 121.114 8.12689C121.221 8.05145 121.342 8.01373 121.478 8.01373C121.509 8.01373 121.544 8.01528 121.582 8.01838C121.622 8.02045 121.654 8.02406 121.68 8.02923V8.54542C121.656 8.53716 121.618 8.52992 121.567 8.52372C121.516 8.51649 121.467 8.51287 121.42 8.51287C121.317 8.51287 121.225 8.53509 121.144 8.57953C121.063 8.62293 120.999 8.68339 120.953 8.76089C120.906 8.8384 120.883 8.92779 120.883 9.02906V10.4288H120.322ZM122.993 10.4753C122.761 10.4753 122.559 10.4242 122.389 10.3219C122.218 10.2196 122.086 10.0764 121.992 9.89249C121.899 9.70854 121.852 9.49359 121.852 9.24763C121.852 9.00168 121.899 8.78621 121.992 8.60123C122.086 8.41625 122.218 8.2726 122.389 8.17029C122.559 8.06798 122.761 8.01683 122.993 8.01683C123.226 8.01683 123.427 8.06798 123.598 8.17029C123.768 8.2726 123.9 8.41625 123.993 8.60123C124.087 8.78621 124.134 9.00168 124.134 9.24763C124.134 9.49359 124.087 9.70854 123.993 9.89249C123.9 10.0764 123.768 10.2196 123.598 10.3219C123.427 10.4242 123.226 10.4753 122.993 10.4753ZM122.996 10.0258C123.122 10.0258 123.228 9.99118 123.313 9.92194C123.397 9.85167 123.46 9.75763 123.502 9.63982C123.544 9.52201 123.565 9.39076 123.565 9.24608C123.565 9.10037 123.544 8.96861 123.502 8.8508C123.46 8.73196 123.397 8.6374 123.313 8.56713C123.228 8.49685 123.122 8.46172 122.996 8.46172C122.867 8.46172 122.76 8.49685 122.674 8.56713C122.589 8.6374 122.526 8.73196 122.483 8.8508C122.442 8.96861 122.421 9.10037 122.421 9.24608C122.421 9.39076 122.442 9.52201 122.483 9.63982C122.526 9.75763 122.589 9.85167 122.674 9.92194C122.76 9.99118 122.867 10.0258 122.996 10.0258ZM126.492 8.67718L125.981 8.73299C125.966 8.68132 125.941 8.63275 125.905 8.58728C125.87 8.54181 125.822 8.50512 125.762 8.47722C125.702 8.44932 125.629 8.43536 125.542 8.43536C125.425 8.43536 125.327 8.46068 125.248 8.51132C125.169 8.56196 125.13 8.62758 125.131 8.70819C125.13 8.77743 125.156 8.83375 125.207 8.87715C125.26 8.92056 125.347 8.95621 125.468 8.98411L125.874 9.07092C126.099 9.11949 126.267 9.19648 126.376 9.30189C126.487 9.4073 126.542 9.54526 126.543 9.71577C126.542 9.86562 126.499 9.9979 126.412 10.1126C126.326 10.2263 126.207 10.3152 126.054 10.3792C125.901 10.4433 125.725 10.4753 125.527 10.4753C125.235 10.4753 125.001 10.4144 124.823 10.2924C124.645 10.1694 124.539 9.99841 124.505 9.77933L125.052 9.72662C125.077 9.8341 125.13 9.91522 125.21 9.96999C125.291 10.0248 125.396 10.0522 125.525 10.0522C125.658 10.0522 125.765 10.0248 125.846 9.96999C125.928 9.91522 125.968 9.84753 125.968 9.76693C125.968 9.69872 125.942 9.6424 125.889 9.59796C125.838 9.55353 125.757 9.51942 125.648 9.49565L125.241 9.4104C125.013 9.36286 124.844 9.28277 124.734 9.17013C124.625 9.05645 124.571 8.9128 124.572 8.73919C124.571 8.59244 124.61 8.46533 124.691 8.35786C124.773 8.24935 124.886 8.16564 125.031 8.10674C125.176 8.0468 125.344 8.01683 125.534 8.01683C125.813 8.01683 126.033 8.07625 126.193 8.19509C126.354 8.31394 126.454 8.47463 126.492 8.67718ZM128.888 8.67718L128.377 8.73299C128.362 8.68132 128.337 8.63275 128.301 8.58728C128.265 8.54181 128.218 8.50512 128.158 8.47722C128.098 8.44932 128.025 8.43536 127.938 8.43536C127.821 8.43536 127.723 8.46068 127.643 8.51132C127.565 8.56196 127.526 8.62758 127.527 8.70819C127.526 8.77743 127.551 8.83375 127.603 8.87715C127.656 8.92056 127.743 8.95621 127.863 8.98411L128.27 9.07092C128.495 9.11949 128.662 9.19648 128.772 9.30189C128.882 9.4073 128.938 9.54526 128.939 9.71577C128.938 9.86562 128.894 9.9979 128.807 10.1126C128.722 10.2263 128.602 10.3152 128.449 10.3792C128.296 10.4433 128.121 10.4753 127.922 10.4753C127.631 10.4753 127.396 10.4144 127.219 10.2924C127.041 10.1694 126.935 9.99841 126.901 9.77933L127.448 9.72662C127.473 9.8341 127.525 9.91522 127.606 9.96999C127.687 10.0248 127.792 10.0522 127.921 10.0522C128.054 10.0522 128.161 10.0248 128.242 9.96999C128.323 9.91522 128.364 9.84753 128.364 9.76693C128.364 9.69872 128.338 9.6424 128.285 9.59796C128.233 9.55353 128.153 9.51942 128.043 9.49565L127.637 9.4104C127.409 9.36286 127.24 9.28277 127.13 9.17013C127.021 9.05645 126.966 8.9128 126.967 8.73919C126.966 8.59244 127.006 8.46533 127.087 8.35786C127.168 8.24935 127.282 8.16564 127.426 8.10674C127.572 8.0468 127.74 8.01683 127.93 8.01683C128.209 8.01683 128.429 8.07625 128.589 8.19509C128.75 8.31394 128.85 8.47463 128.888 8.67718ZM132.235 8.12689C132.22 7.99151 132.159 7.8861 132.052 7.81066C131.945 7.73522 131.807 7.6975 131.636 7.6975C131.517 7.6975 131.414 7.71559 131.328 7.75176C131.242 7.78793 131.177 7.83701 131.131 7.89902C131.086 7.96102 131.062 8.03181 131.061 8.11139C131.061 8.17753 131.076 8.23488 131.106 8.28345C131.137 8.33202 131.179 8.37336 131.232 8.40746C131.285 8.44053 131.343 8.46843 131.407 8.49117C131.471 8.5139 131.536 8.53302 131.601 8.54852L131.898 8.62293C132.018 8.65083 132.134 8.68855 132.244 8.73609C132.356 8.78363 132.455 8.84357 132.543 8.91591C132.632 8.98824 132.702 9.07557 132.754 9.17788C132.806 9.28019 132.832 9.40006 132.832 9.53751C132.832 9.72352 132.784 9.88732 132.689 10.0289C132.594 10.1694 132.456 10.2795 132.277 10.3591C132.098 10.4376 131.881 10.4769 131.627 10.4769C131.38 10.4769 131.166 10.4387 130.984 10.3622C130.803 10.2857 130.661 10.1741 130.559 10.0273C130.458 9.8806 130.403 9.70182 130.395 9.491H130.961C130.969 9.60158 131.003 9.69355 131.063 9.76693C131.123 9.8403 131.201 9.89507 131.297 9.93124C131.394 9.96741 131.503 9.9855 131.622 9.9855C131.748 9.9855 131.857 9.96689 131.951 9.92969C132.046 9.89145 132.121 9.83875 132.174 9.77158C132.228 9.70337 132.255 9.6238 132.257 9.53286C132.255 9.45018 132.231 9.38198 132.184 9.32824C132.136 9.27347 132.069 9.228 131.984 9.19183C131.899 9.15463 131.8 9.12156 131.686 9.09262L131.325 8.99961C131.063 8.93244 130.857 8.83065 130.705 8.69424C130.554 8.55679 130.478 8.37439 130.478 8.14704C130.478 7.95999 130.529 7.79619 130.63 7.65565C130.733 7.5151 130.872 7.40608 131.047 7.32857C131.223 7.25003 131.422 7.21076 131.644 7.21076C131.869 7.21076 132.067 7.25003 132.236 7.32857C132.407 7.40608 132.541 7.51407 132.638 7.65255C132.735 7.78999 132.785 7.94811 132.788 8.12689H132.235ZM134.005 10.4769C133.854 10.4769 133.718 10.45 133.597 10.3963C133.477 10.3415 133.382 10.2609 133.312 10.1545C133.243 10.048 133.208 9.91677 133.208 9.76073C133.208 9.62638 133.233 9.51529 133.282 9.42745C133.332 9.33961 133.4 9.26933 133.485 9.21663C133.571 9.16393 133.668 9.12414 133.775 9.09727C133.884 9.06937 133.996 9.04922 134.112 9.03682C134.251 9.02235 134.364 9.00943 134.451 8.99806C134.538 8.98566 134.601 8.96706 134.64 8.94226C134.681 8.91642 134.701 8.87664 134.701 8.8229V8.8136C134.701 8.69682 134.666 8.6064 134.597 8.54232C134.528 8.47825 134.428 8.44622 134.298 8.44622C134.16 8.44622 134.051 8.47618 133.971 8.53612C133.891 8.59606 133.837 8.66685 133.809 8.74849L133.285 8.67408C133.327 8.52941 133.395 8.4085 133.49 8.31135C133.585 8.21318 133.701 8.13981 133.839 8.09124C133.976 8.04163 134.128 8.01683 134.295 8.01683C134.409 8.01683 134.523 8.03026 134.637 8.05713C134.751 8.084 134.855 8.12844 134.949 8.19044C135.043 8.25142 135.118 8.33461 135.175 8.44001C135.233 8.54542 135.262 8.67718 135.262 8.8353V10.4288H134.722V10.1018H134.704C134.67 10.1679 134.622 10.2299 134.56 10.2878C134.499 10.3446 134.422 10.3906 134.329 10.4257C134.237 10.4598 134.129 10.4769 134.005 10.4769ZM134.15 10.0646C134.263 10.0646 134.361 10.0423 134.443 9.9979C134.526 9.95243 134.59 9.89249 134.634 9.81808C134.679 9.74368 134.702 9.66255 134.702 9.57471V9.29414C134.685 9.3086 134.655 9.32204 134.612 9.33444C134.571 9.34684 134.524 9.35769 134.473 9.36699C134.421 9.37629 134.37 9.38456 134.319 9.3918C134.269 9.39903 134.225 9.40523 134.188 9.4104C134.104 9.42176 134.029 9.44037 133.963 9.4662C133.897 9.49204 133.844 9.52821 133.806 9.57471C133.768 9.62018 133.749 9.67909 133.749 9.75143C133.749 9.85477 133.787 9.93279 133.862 9.9855C133.937 10.0382 134.034 10.0646 134.15 10.0646ZM136.387 7.25416V10.4288H135.826V7.25416H136.387ZM138.018 10.4753C137.78 10.4753 137.573 10.4257 137.4 10.3265C137.227 10.2263 137.094 10.0847 137.001 9.90179C136.908 9.71784 136.862 9.50134 136.862 9.25228C136.862 9.00736 136.908 8.79241 137.001 8.60743C137.095 8.42141 137.227 8.27673 137.395 8.17339C137.564 8.06902 137.762 8.01683 137.989 8.01683C138.136 8.01683 138.274 8.0406 138.404 8.08813C138.536 8.13464 138.651 8.20698 138.752 8.30515C138.853 8.40333 138.932 8.52837 138.99 8.68029C139.048 8.83116 139.077 9.01098 139.077 9.21973V9.3918H137.125V9.01356H138.539C138.538 8.90609 138.515 8.8105 138.469 8.72679C138.424 8.64205 138.36 8.57539 138.279 8.52682C138.198 8.47825 138.104 8.45397 137.997 8.45397C137.882 8.45397 137.781 8.48187 137.694 8.53767C137.608 8.59244 137.54 8.66478 137.491 8.75469C137.444 8.84357 137.419 8.94122 137.418 9.04767V9.37784C137.418 9.51632 137.444 9.63517 137.494 9.73437C137.545 9.83255 137.616 9.90799 137.707 9.96069C137.798 10.0124 137.904 10.0382 138.026 10.0382C138.108 10.0382 138.182 10.0268 138.248 10.0041C138.314 9.98033 138.371 9.94571 138.42 9.90024C138.468 9.85477 138.505 9.79845 138.53 9.73127L139.054 9.79018C139.021 9.92866 138.958 10.0496 138.865 10.1529C138.773 10.2552 138.655 10.3348 138.511 10.3916C138.368 10.4474 138.203 10.4753 138.018 10.4753ZM141.434 8.67718L140.922 8.73299C140.908 8.68132 140.882 8.63275 140.846 8.58728C140.811 8.54181 140.763 8.50512 140.704 8.47722C140.644 8.44932 140.57 8.43536 140.483 8.43536C140.367 8.43536 140.268 8.46068 140.189 8.51132C140.11 8.56196 140.072 8.62758 140.073 8.70819C140.072 8.77743 140.097 8.83375 140.149 8.87715C140.201 8.92056 140.288 8.95621 140.409 8.98411L140.815 9.07092C141.04 9.11949 141.208 9.19648 141.317 9.30189C141.428 9.4073 141.484 9.54526 141.485 9.71577C141.484 9.86562 141.44 9.9979 141.353 10.1126C141.267 10.2263 141.148 10.3152 140.995 10.3792C140.842 10.4433 140.666 10.4753 140.468 10.4753C140.177 10.4753 139.942 10.4144 139.764 10.2924C139.586 10.1694 139.48 9.99841 139.446 9.77933L139.994 9.72662C140.018 9.8341 140.071 9.91522 140.152 9.96999C140.232 10.0248 140.337 10.0522 140.466 10.0522C140.6 10.0522 140.707 10.0248 140.787 9.96999C140.869 9.91522 140.91 9.84753 140.91 9.76693C140.91 9.69872 140.883 9.6424 140.831 9.59796C140.779 9.55353 140.698 9.51942 140.589 9.49565L140.183 9.4104C139.954 9.36286 139.785 9.28277 139.676 9.17013C139.566 9.05645 139.512 8.9128 139.513 8.73919C139.512 8.59244 139.552 8.46533 139.632 8.35786C139.714 8.24935 139.827 8.16564 139.972 8.10674C140.118 8.0468 140.286 8.01683 140.476 8.01683C140.755 8.01683 140.974 8.07625 141.134 8.19509C141.296 8.31394 141.395 8.47463 141.434 8.67718Z" fill="white"/>
</g>
<defs>
<filter id="filter0_d_2_632" x="-0.744141" y="35.3919" width="321.488" height="209.786" filterUnits="userSpaceOnUse" color-interpolation-filters="sRGB">
<feFlood flood-opacity="0" result="BackgroundImageFix"/>
<feColorMatrix in="SourceAlpha" type="matrix" values="0 0 0 0 0 0 0 0 0 0 0 0 0 0 0 0 0 0 127 0" result="hardAlpha"/>
<feOffset dy="4"/>
<feGaussianBlur stdDeviation="6"/>
<feComposite in2="hardAlpha" operator="out"/>
<feColorMatrix type="matrix" values="0 0 0 0 0 0 0 0 0 0 0 0 0 0 0 0 0 0 0.14 0"/>
<feBlend mode="normal" in2="BackgroundImageFix" result="effect1_dropShadow_2_632"/>
<feBlend mode="normal" in="SourceGraphic" in2="effect1_dropShadow_2_632" result="shape"/>
</filter>
<linearGradient id="paint0_linear_2_632" x1="112.582" y1="14.4018" x2="330.79" y2="15.5096" gradientUnits="userSpaceOnUse">
<stop stop-color="#641026"/>
<stop offset="1" stop-color="#4A071C"/>
</linearGradient>
<clipPath id="clip0_2_632">
<rect width="320" height="240" fill="white" transform="translate(0 0.711365)"/>
</clipPath>
</defs>
</svg>
