<svg width="320" height="240" viewBox="0 0 320 240" fill="none" xmlns="http://www.w3.org/2000/svg">
<g clip-path="url(#clip0_2_819)">
<rect width="320" height="240" fill="#2D2C33"/>
<g filter="url(#filter0_f_2_819)">
<ellipse rx="127.736" ry="90.0806" transform="matrix(0.801789 0.597607 -0.599606 0.800295 66.1065 198.213)" fill="#470C21" fill-opacity="0.68"/>
</g>
<g filter="url(#filter1_f_2_819)">
<ellipse rx="127.736" ry="90.0806" transform="matrix(0.801789 0.597607 -0.599606 0.800295 136.489 198.213)" fill="#470C21" fill-opacity="0.68"/>
</g>
<rect x="10.8086" y="29.9828" width="87" height="2.45724" rx="1.22862" fill="white" fill-opacity="0.1"/>
<g filter="url(#filter2_d_2_819)">
<rect x="10.8086" y="29.7173" width="87" height="2.55323" rx="1.27661" fill="#71071A"/>
</g>
<g style="mix-blend-mode:hard-light" filter="url(#filter3_f_2_819)">
<ellipse cx="52.3167" cy="31.0807" rx="45.4919" ry="1.44861" fill="url(#paint0_linear_2_819)"/>
</g>
<g opacity="0.39">
<g style="mix-blend-mode:hard-light" filter="url(#filter4_f_2_819)">
<ellipse cx="57.2876" cy="30.8912" rx="11.0786" ry="8.3125" fill="url(#paint1_radial_2_819)"/>
</g>
<g style="mix-blend-mode:hard-light" filter="url(#filter5_f_2_819)">
<ellipse cx="57.2874" cy="30.8912" rx="5.53931" ry="4.15625" fill="#4A071C"/>
</g>
</g>
<g style="mix-blend-mode:hard-light" filter="url(#filter6_f_2_819)">
<ellipse cx="54.3086" cy="30.9939" rx="18.2432" ry="6.22377" fill="url(#paint2_linear_2_819)"/>
</g>
<g filter="url(#filter7_f_2_819)">
<ellipse cx="280.103" cy="12.8664" rx="132.864" ry="81.579" transform="rotate(36.7702 280.103 12.8664)" fill="#0D074A"/>
</g>
<g filter="url(#filter8_f_2_819)">
<ellipse cx="166.519" cy="120" rx="132.864" ry="81.579" transform="rotate(36.7702 166.519 120)" fill="#0D074A"/>
</g>
<g filter="url(#filter9_d_2_819)">
<path d="M104.067 14.2784C100.869 0.623627 111.232 -12.4465 125.257 -12.4465H307.2C320.875 -12.4465 331.162 0.01723 328.568 13.4439C326.59 23.6822 317.628 31.0787 307.2 31.0787H125.257C115.149 31.0787 106.372 24.1196 104.067 14.2784Z" fill="url(#paint3_linear_2_819)"/>
</g>
<path d="M281.389 9.48044H298.713V21.2214H281.389V9.48044ZM290.051 12.4157C290.817 12.4157 291.551 12.7249 292.092 13.2754C292.634 13.8259 292.938 14.5725 292.938 15.3509C292.938 16.1294 292.634 16.876 292.092 17.4265C291.551 17.9769 290.817 18.2862 290.051 18.2862C289.285 18.2862 288.551 17.9769 288.009 17.4265C287.468 16.876 287.163 16.1294 287.163 15.3509C287.163 14.5725 287.468 13.8259 288.009 13.2754C288.551 12.7249 289.285 12.4157 290.051 12.4157ZM285.239 11.4373C285.239 11.9563 285.036 12.454 284.675 12.821C284.314 13.1879 283.824 13.3941 283.314 13.3941V17.3078C283.824 17.3078 284.314 17.5139 284.675 17.8809C285.036 18.2479 285.239 18.7456 285.239 19.2646H294.863C294.863 18.7456 295.066 18.2479 295.427 17.8809C295.788 17.5139 296.278 17.3078 296.788 17.3078V13.3941C296.278 13.3941 295.788 13.1879 295.427 12.821C295.066 12.454 294.863 11.9563 294.863 11.4373H285.239Z" fill="#F8F8F8" fill-opacity="0.15"/>
<line x1="221.762" y1="7.29749" x2="221.762" y2="23.4045" stroke="#D2AEAE" stroke-opacity="0.2"/>
<path d="M236.025 9.12222V8.9548C236.025 8.83183 236.051 8.71867 236.103 8.61533C236.156 8.51198 236.232 8.42879 236.332 8.36575C236.433 8.30272 236.554 8.2712 236.697 8.2712C236.843 8.2712 236.966 8.30272 237.066 8.36575C237.165 8.42776 237.24 8.51043 237.29 8.61377C237.342 8.71712 237.368 8.83079 237.368 8.9548V9.12222C237.368 9.24519 237.342 9.35835 237.29 9.4617C237.239 9.56504 237.163 9.64823 237.062 9.71127C236.963 9.77431 236.841 9.80583 236.697 9.80583C236.552 9.80583 236.429 9.77431 236.329 9.71127C236.229 9.64823 236.153 9.56504 236.101 9.4617C236.051 9.35835 236.025 9.24519 236.025 9.12222ZM236.43 8.9548V9.12222C236.43 9.20386 236.45 9.27878 236.489 9.34699C236.528 9.41519 236.597 9.4493 236.697 9.4493C236.797 9.4493 236.866 9.41571 236.903 9.34854C236.941 9.28033 236.96 9.20489 236.96 9.12222V8.9548C236.96 8.87213 236.942 8.79669 236.906 8.72848C236.87 8.65925 236.8 8.62463 236.697 8.62463C236.599 8.62463 236.531 8.65925 236.49 8.72848C236.45 8.79669 236.43 8.87213 236.43 8.9548ZM234.412 7.30546V7.13805C234.412 7.01404 234.438 6.90036 234.491 6.79702C234.543 6.69368 234.62 6.61101 234.72 6.549C234.82 6.48596 234.942 6.45444 235.084 6.45444C235.23 6.45444 235.353 6.48596 235.452 6.549C235.552 6.61101 235.628 6.69368 235.678 6.79702C235.729 6.90036 235.754 7.01404 235.754 7.13805V7.30546C235.754 7.42947 235.728 7.54315 235.677 7.64649C235.626 7.7488 235.551 7.83096 235.45 7.89296C235.35 7.95497 235.228 7.98597 235.084 7.98597C234.939 7.98597 234.816 7.95497 234.716 7.89296C234.616 7.83096 234.541 7.74829 234.489 7.64494C234.438 7.5416 234.412 7.42844 234.412 7.30546ZM234.819 7.13805V7.30546C234.819 7.38814 234.839 7.46358 234.877 7.53178C234.916 7.59896 234.985 7.63254 235.084 7.63254C235.184 7.63254 235.252 7.59896 235.289 7.53178C235.327 7.46358 235.346 7.38814 235.346 7.30546V7.13805C235.346 7.05538 235.328 6.97994 235.292 6.91173C235.256 6.84249 235.187 6.80787 235.084 6.80787C234.986 6.80787 234.918 6.84249 234.878 6.91173C234.839 6.98097 234.819 7.05641 234.819 7.13805ZM234.588 9.71747L236.771 6.5428H237.159L234.976 9.71747H234.588ZM239.55 6.5428L240.376 9.04161H240.408L241.233 6.5428H241.866L240.746 9.71747H240.036L238.919 6.5428H239.55ZM242.697 9.76552C242.546 9.76552 242.41 9.73865 242.289 9.68492C242.169 9.63014 242.074 9.54954 242.004 9.4431C241.935 9.33665 241.9 9.20541 241.9 9.04936C241.9 8.91502 241.925 8.80392 241.974 8.71608C242.024 8.62824 242.092 8.55797 242.177 8.50527C242.263 8.45256 242.36 8.41277 242.467 8.38591C242.576 8.358 242.688 8.33785 242.804 8.32545C242.943 8.31098 243.056 8.29806 243.143 8.2867C243.23 8.2743 243.293 8.25569 243.332 8.23089C243.373 8.20506 243.393 8.16527 243.393 8.11153V8.10223C243.393 7.98546 243.358 7.89503 243.289 7.83096C243.22 7.76689 243.12 7.73485 242.99 7.73485C242.852 7.73485 242.743 7.76482 242.663 7.82476C242.583 7.8847 242.529 7.95549 242.501 8.03713L241.978 7.96272C242.019 7.81804 242.087 7.69713 242.182 7.59999C242.277 7.50181 242.393 7.42844 242.531 7.37987C242.668 7.33027 242.82 7.30546 242.987 7.30546C243.101 7.30546 243.216 7.3189 243.329 7.34577C243.443 7.37264 243.547 7.41707 243.641 7.47908C243.735 7.54005 243.81 7.62324 243.867 7.72865C243.925 7.83406 243.954 7.96582 243.954 8.12393V9.71747H243.415V9.39039H243.396C243.362 9.45653 243.314 9.51853 243.252 9.57641C243.191 9.63324 243.114 9.67923 243.021 9.71437C242.929 9.74847 242.821 9.76552 242.697 9.76552ZM242.843 9.35319C242.955 9.35319 243.053 9.33097 243.135 9.28653C243.218 9.24106 243.282 9.18112 243.326 9.10672C243.372 9.03231 243.394 8.95119 243.394 8.86335V8.58277C243.377 8.59724 243.347 8.61067 243.304 8.62308C243.263 8.63548 243.217 8.64633 243.165 8.65563C243.113 8.66493 243.062 8.6732 243.011 8.68043C242.961 8.68766 242.917 8.69387 242.88 8.69903C242.796 8.7104 242.721 8.729 242.655 8.75484C242.589 8.78067 242.537 8.81684 242.498 8.86335C242.46 8.90882 242.441 8.96772 242.441 9.04006C242.441 9.1434 242.479 9.22143 242.554 9.27413C242.63 9.32684 242.726 9.35319 242.843 9.35319ZM244.518 9.71747V7.33647H245.062V7.7333H245.087C245.13 7.59586 245.205 7.48993 245.31 7.41552C245.417 7.34008 245.538 7.30236 245.675 7.30236C245.706 7.30236 245.74 7.30391 245.778 7.30701C245.818 7.30908 245.85 7.3127 245.876 7.31787V7.83406C245.852 7.82579 245.815 7.81856 245.763 7.81236C245.712 7.80512 245.663 7.80151 245.616 7.80151C245.513 7.80151 245.421 7.82372 245.34 7.86816C245.259 7.91157 245.196 7.97202 245.149 8.04953C245.103 8.12703 245.079 8.21642 245.079 8.3177V9.71747H244.518ZM247.356 6.5428H248.06L249.003 8.84319H249.04L249.982 6.5428H250.686V9.71747H250.134V7.53643H250.105L249.227 9.70817H248.815L247.938 7.53178H247.908V9.71747H247.356V6.5428ZM252.326 9.76397C252.094 9.76397 251.892 9.71282 251.722 9.61051C251.551 9.5082 251.419 9.36507 251.325 9.18112C251.232 8.99717 251.185 8.78222 251.185 8.53627C251.185 8.29031 251.232 8.07485 251.325 7.88986C251.419 7.70488 251.551 7.56124 251.722 7.45893C251.892 7.35662 252.094 7.30546 252.326 7.30546C252.559 7.30546 252.76 7.35662 252.931 7.45893C253.101 7.56124 253.233 7.70488 253.326 7.88986C253.42 8.07485 253.467 8.29031 253.467 8.53627C253.467 8.78222 253.42 8.99717 253.326 9.18112C253.233 9.36507 253.101 9.5082 252.931 9.61051C252.76 9.71282 252.559 9.76397 252.326 9.76397ZM252.329 9.31443C252.455 9.31443 252.561 9.27981 252.646 9.21058C252.73 9.1403 252.793 9.04626 252.835 8.92845C252.877 8.81064 252.898 8.6794 252.898 8.53472C252.898 8.38901 252.877 8.25724 252.835 8.13943C252.793 8.02059 252.73 7.92603 252.646 7.85576C252.561 7.78549 252.455 7.75035 252.329 7.75035C252.2 7.75035 252.093 7.78549 252.007 7.85576C251.922 7.92603 251.859 8.02059 251.816 8.13943C251.775 8.25724 251.754 8.38901 251.754 8.53472C251.754 8.6794 251.775 8.81064 251.816 8.92845C251.859 9.04626 251.922 9.1403 252.007 9.21058C252.093 9.27981 252.2 9.31443 252.329 9.31443ZM253.968 6.5428H254.672L255.614 8.84319H255.652L256.594 6.5428H257.298V9.71747H256.746V7.53643H256.717L255.839 9.70817H255.427L254.549 7.53178H254.52V9.71747H253.968V6.5428Z" fill="white"/>
<path d="M118.64 7.55659C118.614 7.47288 118.579 7.39796 118.533 7.33182C118.489 7.26464 118.435 7.20729 118.372 7.15975C118.31 7.11221 118.239 7.07656 118.158 7.05279C118.077 7.02799 117.99 7.01559 117.894 7.01559C117.724 7.01559 117.572 7.05848 117.439 7.14425C117.305 7.23002 117.201 7.3561 117.124 7.52248C117.049 7.68783 117.011 7.88935 117.011 8.12703C117.011 8.36679 117.049 8.56985 117.124 8.73624C117.2 8.90262 117.304 9.02921 117.439 9.11602C117.573 9.20179 117.729 9.24468 117.907 9.24468C118.068 9.24468 118.208 9.21368 118.325 9.15167C118.444 9.08967 118.536 9.00182 118.6 8.88815C118.664 8.77344 118.696 8.63909 118.696 8.48511L118.826 8.50527H117.964V8.05573H119.252V8.43706C119.252 8.70885 119.195 8.94395 119.079 9.14237C118.963 9.34079 118.804 9.49373 118.601 9.60121C118.399 9.70765 118.166 9.76087 117.904 9.76087C117.611 9.76087 117.355 9.69525 117.133 9.56401C116.913 9.43173 116.741 9.24416 116.617 9.00131C116.494 8.75742 116.433 8.46806 116.433 8.13323C116.433 7.87695 116.469 7.64804 116.541 7.44653C116.615 7.24501 116.717 7.07398 116.848 6.93343C116.979 6.79185 117.133 6.68438 117.31 6.61101C117.487 6.5366 117.679 6.4994 117.887 6.4994C118.062 6.4994 118.226 6.52523 118.378 6.5769C118.53 6.62754 118.665 6.69988 118.783 6.79392C118.902 6.88796 118.999 6.99957 119.076 7.12875C119.152 7.25793 119.202 7.40054 119.226 7.55659H118.64ZM119.784 9.71747V7.33647H120.328V7.7333H120.353C120.396 7.59586 120.47 7.48993 120.576 7.41552C120.682 7.34008 120.804 7.30236 120.94 7.30236C120.971 7.30236 121.006 7.30391 121.044 7.30701C121.083 7.30908 121.116 7.3127 121.142 7.31787V7.83406C121.118 7.82579 121.08 7.81856 121.028 7.81236C120.978 7.80512 120.929 7.80151 120.881 7.80151C120.779 7.80151 120.687 7.82372 120.605 7.86816C120.525 7.91157 120.461 7.97202 120.415 8.04953C120.368 8.12703 120.345 8.21642 120.345 8.3177V9.71747H119.784ZM122.455 9.76397C122.222 9.76397 122.021 9.71282 121.85 9.61051C121.68 9.5082 121.548 9.36507 121.454 9.18112C121.361 8.99717 121.314 8.78222 121.314 8.53627C121.314 8.29031 121.361 8.07485 121.454 7.88986C121.548 7.70488 121.68 7.56124 121.85 7.45893C122.021 7.35662 122.222 7.30546 122.455 7.30546C122.687 7.30546 122.889 7.35662 123.06 7.45893C123.23 7.56124 123.362 7.70488 123.455 7.88986C123.549 8.07485 123.596 8.29031 123.596 8.53627C123.596 8.78222 123.549 8.99717 123.455 9.18112C123.362 9.36507 123.23 9.5082 123.06 9.61051C122.889 9.71282 122.687 9.76397 122.455 9.76397ZM122.458 9.31443C122.584 9.31443 122.69 9.27981 122.774 9.21058C122.859 9.1403 122.922 9.04626 122.963 8.92845C123.006 8.81064 123.027 8.6794 123.027 8.53472C123.027 8.38901 123.006 8.25724 122.963 8.13943C122.922 8.02059 122.859 7.92603 122.774 7.85576C122.69 7.78549 122.584 7.75035 122.458 7.75035C122.329 7.75035 122.221 7.78549 122.136 7.85576C122.051 7.92603 121.987 8.02059 121.945 8.13943C121.904 8.25724 121.883 8.38901 121.883 8.53472C121.883 8.6794 121.904 8.81064 121.945 8.92845C121.987 9.04626 122.051 9.1403 122.136 9.21058C122.221 9.27981 122.329 9.31443 122.458 9.31443ZM125.954 7.96582L125.442 8.02162C125.428 7.96995 125.403 7.92138 125.367 7.87591C125.331 7.83044 125.284 7.79376 125.224 7.76585C125.164 7.73795 125.091 7.724 125.004 7.724C124.887 7.724 124.789 7.74932 124.709 7.79996C124.631 7.85059 124.592 7.91622 124.593 7.99682C124.592 8.06606 124.617 8.12238 124.669 8.16579C124.722 8.20919 124.808 8.24484 124.929 8.27275L125.336 8.35955C125.561 8.40812 125.728 8.48511 125.838 8.59052C125.948 8.69593 126.004 8.83389 126.005 9.00441C126.004 9.15425 125.96 9.28653 125.873 9.40124C125.788 9.51492 125.668 9.60379 125.515 9.66786C125.362 9.73194 125.187 9.76397 124.988 9.76397C124.697 9.76397 124.462 9.703 124.285 9.58106C124.107 9.45808 124.001 9.28705 123.967 9.06796L124.514 9.01526C124.539 9.12273 124.591 9.20386 124.672 9.25863C124.753 9.3134 124.858 9.34079 124.987 9.34079C125.12 9.34079 125.227 9.3134 125.308 9.25863C125.389 9.20386 125.43 9.13617 125.43 9.05556C125.43 8.98736 125.404 8.93104 125.351 8.8866C125.299 8.84216 125.219 8.80806 125.109 8.78429L124.703 8.69903C124.475 8.65149 124.306 8.5714 124.196 8.45876C124.087 8.34509 124.032 8.20144 124.033 8.02783C124.032 7.88108 124.072 7.75397 124.153 7.64649C124.234 7.53798 124.348 7.45428 124.492 7.39537C124.638 7.33543 124.806 7.30546 124.996 7.30546C125.275 7.30546 125.495 7.36489 125.655 7.48373C125.816 7.60257 125.916 7.76327 125.954 7.96582ZM128.35 7.96582L127.838 8.02162C127.824 7.96995 127.798 7.92138 127.762 7.87591C127.727 7.83044 127.68 7.79376 127.62 7.76585C127.56 7.73795 127.486 7.724 127.4 7.724C127.283 7.724 127.185 7.74932 127.105 7.79996C127.026 7.85059 126.988 7.91622 126.989 7.99682C126.988 8.06606 127.013 8.12238 127.065 8.16579C127.117 8.20919 127.204 8.24484 127.325 8.27275L127.731 8.35955C127.957 8.40812 128.124 8.48511 128.233 8.59052C128.344 8.69593 128.4 8.83389 128.401 9.00441C128.4 9.15425 128.356 9.28653 128.269 9.40124C128.183 9.51492 128.064 9.60379 127.911 9.66786C127.758 9.73194 127.582 9.76397 127.384 9.76397C127.093 9.76397 126.858 9.703 126.68 9.58106C126.502 9.45808 126.397 9.28705 126.362 9.06796L126.91 9.01526C126.934 9.12273 126.987 9.20386 127.068 9.25863C127.148 9.3134 127.253 9.34079 127.382 9.34079C127.516 9.34079 127.623 9.3134 127.703 9.25863C127.785 9.20386 127.826 9.13617 127.826 9.05556C127.826 8.98736 127.799 8.93104 127.747 8.8866C127.695 8.84216 127.614 8.80806 127.505 8.78429L127.099 8.69903C126.87 8.65149 126.701 8.5714 126.592 8.45876C126.482 8.34509 126.428 8.20144 126.429 8.02783C126.428 7.88108 126.468 7.75397 126.548 7.64649C126.63 7.53798 126.743 7.45428 126.888 7.39537C127.034 7.33543 127.202 7.30546 127.392 7.30546C127.671 7.30546 127.89 7.36489 128.051 7.48373C128.212 7.60257 128.311 7.76327 128.35 7.96582ZM131.696 7.41552C131.682 7.28015 131.621 7.17474 131.514 7.0993C131.407 7.02386 131.269 6.98614 131.098 6.98614C130.978 6.98614 130.875 7.00422 130.79 7.04039C130.704 7.07656 130.638 7.12565 130.593 7.18765C130.547 7.24966 130.524 7.32045 130.523 7.40002C130.523 7.46616 130.538 7.52352 130.568 7.57209C130.599 7.62066 130.641 7.66199 130.694 7.6961C130.746 7.72917 130.805 7.75707 130.869 7.7798C130.933 7.80254 130.997 7.82166 131.062 7.83716L131.36 7.91157C131.48 7.93947 131.595 7.97719 131.706 8.02473C131.817 8.07226 131.917 8.1322 132.005 8.20454C132.094 8.27688 132.164 8.3642 132.216 8.46651C132.267 8.56882 132.293 8.6887 132.293 8.82614C132.293 9.01216 132.246 9.17596 132.151 9.31753C132.056 9.45808 131.918 9.56814 131.738 9.64771C131.56 9.72625 131.343 9.76552 131.089 9.76552C130.842 9.76552 130.627 9.72729 130.446 9.65081C130.265 9.57434 130.123 9.46273 130.021 9.31598C129.92 9.16924 129.865 8.99046 129.856 8.77964H130.422C130.431 8.89021 130.465 8.98219 130.525 9.05556C130.585 9.12894 130.663 9.18371 130.759 9.21988C130.856 9.25605 130.964 9.27413 131.084 9.27413C131.209 9.27413 131.319 9.25553 131.413 9.21833C131.508 9.18009 131.582 9.12739 131.636 9.06021C131.69 8.99201 131.717 8.91243 131.718 8.82149C131.717 8.73882 131.693 8.67061 131.645 8.61688C131.598 8.5621 131.531 8.51663 131.445 8.48046C131.361 8.44326 131.261 8.41019 131.148 8.38126L130.787 8.28825C130.525 8.22108 130.318 8.11928 130.166 7.98287C130.016 7.84543 129.94 7.66303 129.94 7.43568C129.94 7.24863 129.991 7.08483 130.092 6.94428C130.194 6.80374 130.333 6.69471 130.509 6.61721C130.685 6.53867 130.884 6.4994 131.106 6.4994C131.331 6.4994 131.529 6.53867 131.698 6.61721C131.869 6.69471 132.002 6.80271 132.1 6.94118C132.197 7.07863 132.247 7.23674 132.25 7.41552H131.696ZM133.466 9.76552C133.315 9.76552 133.18 9.73865 133.059 9.68492C132.939 9.63014 132.844 9.54954 132.773 9.4431C132.704 9.33665 132.67 9.20541 132.67 9.04936C132.67 8.91502 132.694 8.80392 132.744 8.71608C132.794 8.62824 132.861 8.55797 132.947 8.50527C133.033 8.45256 133.129 8.41277 133.237 8.38591C133.345 8.358 133.458 8.33785 133.573 8.32545C133.713 8.31098 133.826 8.29806 133.913 8.2867C134 8.2743 134.063 8.25569 134.102 8.23089C134.142 8.20506 134.162 8.16527 134.162 8.11153V8.10223C134.162 7.98546 134.128 7.89503 134.058 7.83096C133.989 7.76689 133.89 7.73485 133.759 7.73485C133.622 7.73485 133.513 7.76482 133.432 7.82476C133.353 7.8847 133.299 7.95549 133.271 8.03713L132.747 7.96272C132.788 7.81804 132.857 7.69713 132.952 7.59999C133.047 7.50181 133.163 7.42844 133.3 7.37987C133.438 7.33027 133.59 7.30546 133.756 7.30546C133.871 7.30546 133.985 7.3189 134.099 7.34577C134.212 7.37264 134.316 7.41707 134.41 7.47908C134.504 7.54005 134.58 7.62324 134.637 7.72865C134.695 7.83406 134.723 7.96582 134.723 8.12393V9.71747H134.184V9.39039H134.165C134.131 9.45653 134.083 9.51853 134.021 9.57641C133.96 9.63324 133.883 9.67923 133.79 9.71437C133.698 9.74847 133.59 9.76552 133.466 9.76552ZM133.612 9.35319C133.725 9.35319 133.822 9.33097 133.905 9.28653C133.988 9.24106 134.051 9.18112 134.096 9.10672C134.141 9.03231 134.164 8.95119 134.164 8.86335V8.58277C134.146 8.59724 134.116 8.61067 134.074 8.62308C134.033 8.63548 133.986 8.64633 133.934 8.65563C133.883 8.66493 133.832 8.6732 133.781 8.68043C133.73 8.68766 133.686 8.69387 133.649 8.69903C133.566 8.7104 133.491 8.729 133.424 8.75484C133.358 8.78067 133.306 8.81684 133.268 8.86335C133.23 8.90882 133.211 8.96772 133.211 9.04006C133.211 9.1434 133.248 9.22143 133.324 9.27413C133.399 9.32684 133.495 9.35319 133.612 9.35319ZM135.849 6.5428V9.71747H135.288V6.5428H135.849ZM137.48 9.76397C137.241 9.76397 137.035 9.71437 136.862 9.61516C136.689 9.51492 136.556 9.37334 136.463 9.19042C136.37 9.00647 136.324 8.78997 136.324 8.54092C136.324 8.296 136.37 8.08105 136.463 7.89606C136.557 7.71005 136.688 7.56537 136.857 7.46203C137.025 7.35765 137.223 7.30546 137.451 7.30546C137.597 7.30546 137.736 7.32923 137.866 7.37677C137.997 7.42327 138.113 7.49561 138.213 7.59379C138.314 7.69196 138.394 7.81701 138.452 7.96892C138.51 8.1198 138.539 8.29962 138.539 8.50837V8.68043H136.587V8.3022H138.001C138 8.19472 137.977 8.09913 137.931 8.01542C137.886 7.93068 137.822 7.86403 137.74 7.81546C137.66 7.76689 137.566 7.7426 137.458 7.7426C137.344 7.7426 137.243 7.7705 137.156 7.82631C137.069 7.88108 137.002 7.95342 136.953 8.04333C136.905 8.1322 136.881 8.22986 136.88 8.3363V8.66648C136.88 8.80496 136.905 8.9238 136.956 9.02301C137.007 9.12118 137.077 9.19662 137.168 9.24933C137.259 9.301 137.366 9.32684 137.488 9.32684C137.569 9.32684 137.643 9.31547 137.709 9.29273C137.776 9.26896 137.833 9.23434 137.881 9.18887C137.93 9.1434 137.967 9.08708 137.992 9.01991L138.515 9.07881C138.482 9.21729 138.419 9.3382 138.326 9.44154C138.234 9.54385 138.117 9.62343 137.973 9.68027C137.829 9.73607 137.665 9.76397 137.48 9.76397ZM140.895 7.96582L140.384 8.02162C140.369 7.96995 140.344 7.92138 140.308 7.87591C140.273 7.83044 140.225 7.79376 140.165 7.76585C140.105 7.73795 140.032 7.724 139.945 7.724C139.828 7.724 139.73 7.74932 139.651 7.79996C139.572 7.85059 139.533 7.91622 139.534 7.99682C139.533 8.06606 139.559 8.12238 139.61 8.16579C139.663 8.20919 139.75 8.24484 139.871 8.27275L140.277 8.35955C140.502 8.40812 140.67 8.48511 140.779 8.59052C140.89 8.69593 140.945 8.83389 140.946 9.00441C140.945 9.15425 140.902 9.28653 140.815 9.40124C140.729 9.51492 140.61 9.60379 140.457 9.66786C140.304 9.73194 140.128 9.76397 139.93 9.76397C139.638 9.76397 139.404 9.703 139.226 9.58106C139.048 9.45808 138.942 9.28705 138.908 9.06796L139.455 9.01526C139.48 9.12273 139.533 9.20386 139.613 9.25863C139.694 9.3134 139.799 9.34079 139.928 9.34079C140.061 9.34079 140.168 9.3134 140.249 9.25863C140.331 9.20386 140.371 9.13617 140.371 9.05556C140.371 8.98736 140.345 8.93104 140.292 8.8866C140.241 8.84216 140.16 8.80806 140.051 8.78429L139.644 8.69903C139.416 8.65149 139.247 8.5714 139.137 8.45876C139.028 8.34509 138.974 8.20144 138.975 8.02783C138.974 7.88108 139.013 7.75397 139.094 7.64649C139.176 7.53798 139.289 7.45428 139.434 7.39537C139.579 7.33543 139.747 7.30546 139.937 7.30546C140.216 7.30546 140.436 7.36489 140.596 7.48373C140.757 7.60257 140.857 7.76327 140.895 7.96582Z" fill="white"/>
<g filter="url(#filter10_df_2_819)">
<rect x="10.8086" y="42.3919" width="297.936" height="185.786" rx="24" fill="#211F29" fill-opacity="0.8" shape-rendering="crispEdges"/>
</g>
</g>
<defs>
<filter id="filter0_f_2_819" x="-149.704" y="-6.78418" width="431.621" height="409.994" filterUnits="userSpaceOnUse" color-interpolation-filters="sRGB">
<feFlood flood-opacity="0" result="BackgroundImageFix"/>
<feBlend mode="normal" in="SourceGraphic" in2="BackgroundImageFix" result="shape"/>
<feGaussianBlur stdDeviation="50" result="effect1_foregroundBlur_2_819"/>
</filter>
<filter id="filter1_f_2_819" x="-79.3213" y="-6.78418" width="431.621" height="409.994" filterUnits="userSpaceOnUse" color-interpolation-filters="sRGB">
<feFlood flood-opacity="0" result="BackgroundImageFix"/>
<feBlend mode="normal" in="SourceGraphic" in2="BackgroundImageFix" result="shape"/>
<feGaussianBlur stdDeviation="50" result="effect1_foregroundBlur_2_819"/>
</filter>
<filter id="filter2_d_2_819" x="4.80859" y="23.7173" width="99" height="14.5532" filterUnits="userSpaceOnUse" color-interpolation-filters="sRGB">
<feFlood flood-opacity="0" result="BackgroundImageFix"/>
<feColorMatrix in="SourceAlpha" type="matrix" values="0 0 0 0 0 0 0 0 0 0 0 0 0 0 0 0 0 0 127 0" result="hardAlpha"/>
<feMorphology radius="1" operator="dilate" in="SourceAlpha" result="effect1_dropShadow_2_819"/>
<feOffset/>
<feGaussianBlur stdDeviation="2.5"/>
<feComposite in2="hardAlpha" operator="out"/>
<feColorMatrix type="matrix" values="0 0 0 0 0.95 0 0 0 0 0.0514584 0 0 0 0 0.105371 0 0 0 0.74 0"/>
<feBlend mode="normal" in2="BackgroundImageFix" result="effect1_dropShadow_2_819"/>
<feBlend mode="normal" in="SourceGraphic" in2="effect1_dropShadow_2_819" result="shape"/>
</filter>
<filter id="filter3_f_2_819" x="3.70752" y="26.515" width="97.2183" height="9.13159" filterUnits="userSpaceOnUse" color-interpolation-filters="sRGB">
<feFlood flood-opacity="0" result="BackgroundImageFix"/>
<feBlend mode="normal" in="SourceGraphic" in2="BackgroundImageFix" result="shape"/>
<feGaussianBlur stdDeviation="1.55859" result="effect1_foregroundBlur_2_819"/>
</filter>
<filter id="filter4_f_2_819" x="36.8574" y="13.2271" width="40.8603" height="35.3281" filterUnits="userSpaceOnUse" color-interpolation-filters="sRGB">
<feFlood flood-opacity="0" result="BackgroundImageFix"/>
<feBlend mode="normal" in="SourceGraphic" in2="BackgroundImageFix" result="shape"/>
<feGaussianBlur stdDeviation="4.67578" result="effect1_foregroundBlur_2_819"/>
</filter>
<filter id="filter5_f_2_819" x="47.5918" y="22.5787" width="19.3911" height="16.625" filterUnits="userSpaceOnUse" color-interpolation-filters="sRGB">
<feFlood flood-opacity="0" result="BackgroundImageFix"/>
<feBlend mode="normal" in="SourceGraphic" in2="BackgroundImageFix" result="shape"/>
<feGaussianBlur stdDeviation="2.07812" result="effect1_foregroundBlur_2_819"/>
</filter>
<filter id="filter6_f_2_819" x="28.0654" y="16.7701" width="52.4863" height="28.4475" filterUnits="userSpaceOnUse" color-interpolation-filters="sRGB">
<feFlood flood-opacity="0" result="BackgroundImageFix"/>
<feBlend mode="normal" in="SourceGraphic" in2="BackgroundImageFix" result="shape"/>
<feGaussianBlur stdDeviation="4" result="effect1_foregroundBlur_2_819"/>
</filter>
<filter id="filter7_f_2_819" x="-16.5934" y="-269.643" width="593.393" height="565.019" filterUnits="userSpaceOnUse" color-interpolation-filters="sRGB">
<feFlood flood-opacity="0" result="BackgroundImageFix"/>
<feBlend mode="normal" in="SourceGraphic" in2="BackgroundImageFix" result="shape"/>
<feGaussianBlur stdDeviation="89.785" result="effect1_foregroundBlur_2_819"/>
</filter>
<filter id="filter8_f_2_819" x="-130.177" y="-162.51" width="593.393" height="565.019" filterUnits="userSpaceOnUse" color-interpolation-filters="sRGB">
<feFlood flood-opacity="0" result="BackgroundImageFix"/>
<feBlend mode="normal" in="SourceGraphic" in2="BackgroundImageFix" result="shape"/>
<feGaussianBlur stdDeviation="89.785" result="effect1_foregroundBlur_2_819"/>
</filter>
<filter id="filter9_d_2_819" x="99.4844" y="-12.4465" width="233.485" height="51.5251" filterUnits="userSpaceOnUse" color-interpolation-filters="sRGB">
<feFlood flood-opacity="0" result="BackgroundImageFix"/>
<feColorMatrix in="SourceAlpha" type="matrix" values="0 0 0 0 0 0 0 0 0 0 0 0 0 0 0 0 0 0 127 0" result="hardAlpha"/>
<feOffset dy="4"/>
<feGaussianBlur stdDeviation="2"/>
<feComposite in2="hardAlpha" operator="out"/>
<feColorMatrix type="matrix" values="0 0 0 0 0 0 0 0 0 0 0 0 0 0 0 0 0 0 0.25 0"/>
<feBlend mode="normal" in2="BackgroundImageFix" result="effect1_dropShadow_2_819"/>
<feBlend mode="normal" in="SourceGraphic" in2="effect1_dropShadow_2_819" result="shape"/>
</filter>
<filter id="filter10_df_2_819" x="6.80859" y="40.3919" width="305.936" height="195.786" filterUnits="userSpaceOnUse" color-interpolation-filters="sRGB">
<feFlood flood-opacity="0" result="BackgroundImageFix"/>
<feColorMatrix in="SourceAlpha" type="matrix" values="0 0 0 0 0 0 0 0 0 0 0 0 0 0 0 0 0 0 127 0" result="hardAlpha"/>
<feOffset dy="4"/>
<feGaussianBlur stdDeviation="2"/>
<feComposite in2="hardAlpha" operator="out"/>
<feColorMatrix type="matrix" values="0 0 0 0 0 0 0 0 0 0 0 0 0 0 0 0 0 0 0.25 0"/>
<feBlend mode="normal" in2="BackgroundImageFix" result="effect1_dropShadow_2_819"/>
<feBlend mode="normal" in="SourceGraphic" in2="effect1_dropShadow_2_819" result="shape"/>
<feGaussianBlur stdDeviation="1" result="effect2_foregroundBlur_2_819"/>
</filter>
<linearGradient id="paint0_linear_2_819" x1="102.211" y1="29.6321" x2="5.35723" y2="29.6321" gradientUnits="userSpaceOnUse">
<stop stop-color="#8A1030"/>
<stop offset="0.292136" stop-color="#833447"/>
<stop offset="0.489773" stop-color="#C74179"/>
<stop offset="0.630685" stop-color="#7C1B32"/>
<stop offset="0.833333" stop-color="#8E0921" stop-opacity="0.451286"/>
<stop offset="1" stop-color="#329D9C" stop-opacity="0"/>
<stop offset="1" stop-color="#329D9C" stop-opacity="0"/>
<stop offset="1" stop-color="#98ECFF" stop-opacity="0"/>
</linearGradient>
<radialGradient id="paint1_radial_2_819" cx="0" cy="0" r="1" gradientUnits="userSpaceOnUse" gradientTransform="translate(57.2876 22.5787) rotate(180) scale(9.9547 987.802)">
<stop stop-color="#7B0606"/>
<stop offset="0.515625" stop-color="#AA1240" stop-opacity="0.886562"/>
</radialGradient>
<linearGradient id="paint2_linear_2_819" x1="78.8972" y1="24.7701" x2="37.9162" y2="24.7701" gradientUnits="userSpaceOnUse">
<stop stop-color="#812C50" stop-opacity="0.504734"/>
<stop offset="0.526516" stop-color="#9D3259"/>
<stop offset="0.817708" stop-color="#8E044F" stop-opacity="0.600251"/>
<stop offset="1" stop-color="#7D051A" stop-opacity="0.35"/>
</linearGradient>
<linearGradient id="paint3_linear_2_819" x1="98.3022" y1="31.0787" x2="109.959" y2="-77.5098" gradientUnits="userSpaceOnUse">
<stop stop-color="#4A071C"/>
<stop offset="1" stop-color="#BA0F3C"/>
</linearGradient>
<clipPath id="clip0_2_819">
<rect width="320" height="240" fill="white"/>
</clipPath>
</defs>
</svg>
